<?xml version="1.0" encoding="UTF-8" standalone="no"?>
<!DOCTYPE svg PUBLIC "-//W3C//DTD SVG 1.1//EN"
 "http://www.w3.org/Graphics/SVG/1.1/DTD/svg11.dtd">
<!-- Generated by graphviz version 9.0.0 (20230911.1827)
 -->
<!-- Title: automaton Pages: 1 -->
<svg width="344pt" height="380pt"
 viewBox="0.00 0.00 344.25 380.25" xmlns="http://www.w3.org/2000/svg" xmlns:xlink="http://www.w3.org/1999/xlink">
<g id="graph0" class="graph" transform="scale(1 1) rotate(0) translate(4 376.25)">
<title>automaton</title>
<polygon fill="white" stroke="none" points="-4,4 -4,-376.25 340.25,-376.25 340.25,4 -4,4"/>
<!-- s0 -->
<g id="node1" class="node">
<title>s0</title>
<ellipse fill="none" stroke="black" cx="96" cy="-281.25" rx="27" ry="18"/>
<text text-anchor="middle" x="96" y="-275.82" font-family="Times New Roman,serif" font-size="14.00">s0</text>
</g>
<!-- s1 -->
<g id="node2" class="node">
<title>s1</title>
<ellipse fill="none" stroke="black" cx="96" cy="-193.5" rx="27" ry="18"/>
<text text-anchor="middle" x="96" y="-188.07" font-family="Times New Roman,serif" font-size="14.00">s1</text>
</g>
<!-- s0&#45;&gt;s1 -->
<g id="edge1" class="edge">
<title>s0&#45;&gt;s1</title>
<path fill="none" stroke="black" d="M96,-262.9C96,-251.51 96,-236.34 96,-223.18"/>
<polygon fill="black" stroke="black" points="99.5,-223.34 96,-213.34 92.5,-223.34 99.5,-223.34"/>
<text text-anchor="middle" x="151.88" y="-231.95" font-family="Times New Roman,serif" font-size="14.00">(1, 1, 0, 0, 0, 0, 0)/0</text>
</g>
<!-- s3 -->
<g id="node3" class="node">
<title>s3</title>
<ellipse fill="none" stroke="black" cx="27" cy="-105.75" rx="27" ry="18"/>
<text text-anchor="middle" x="27" y="-100.33" font-family="Times New Roman,serif" font-size="14.00">s3</text>
</g>
<!-- s1&#45;&gt;s3 -->
<g id="edge2" class="edge">
<title>s1&#45;&gt;s3</title>
<path fill="none" stroke="black" d="M70.69,-186.56C55.42,-181.54 37.17,-172.66 27.75,-157.5 23.67,-150.94 22.3,-142.92 22.26,-135.21"/>
<polygon fill="black" stroke="black" points="25.73,-135.71 22.93,-125.49 18.75,-135.23 25.73,-135.71"/>
<text text-anchor="middle" x="86.12" y="-144.2" font-family="Times New Roman,serif" font-size="14.00">(1, 2, 1, 1, 1, 1, &#45;1)/0</text>
</g>
<!-- s4 -->
<g id="node4" class="node">
<title>s4</title>
<ellipse fill="green" stroke="black" cx="166" cy="-105.75" rx="27" ry="18"/>
<text text-anchor="middle" x="166" y="-100.33" font-family="Times New Roman,serif" font-size="14.00">s4</text>
</g>
<!-- s1&#45;&gt;s4 -->
<g id="edge3" class="edge">
<title>s1&#45;&gt;s4</title>
<path fill="none" stroke="black" d="M116.18,-181.24C125.6,-175.18 136.4,-167 144,-157.5 149.53,-150.59 153.93,-142.08 157.29,-134.02"/>
<polygon fill="black" stroke="black" points="160.47,-135.51 160.72,-124.91 153.92,-133.04 160.47,-135.51"/>
<text text-anchor="middle" x="215.62" y="-144.2" font-family="Times New Roman,serif" font-size="14.00">(1, 2, 1, &#45;1, &#45;1, &#45;1, 1)/0</text>
</g>
<!-- s5 -->
<g id="node5" class="node">
<title>s5</title>
<ellipse fill="green" stroke="black" cx="27" cy="-18" rx="27" ry="18"/>
<text text-anchor="middle" x="27" y="-12.57" font-family="Times New Roman,serif" font-size="14.00">s5</text>
</g>
<!-- s3&#45;&gt;s5 -->
<g id="edge4" class="edge">
<title>s3&#45;&gt;s5</title>
<path fill="none" stroke="black" d="M27,-87.4C27,-76.01 27,-60.84 27,-47.68"/>
<polygon fill="black" stroke="black" points="30.5,-47.84 27,-37.84 23.5,-47.84 30.5,-47.84"/>
<text text-anchor="middle" x="85.12" y="-56.45" font-family="Times New Roman,serif" font-size="14.00">(1, 2, 1, 1, 2, 1, &#45;1)/0</text>
</g>
<!-- s4&#45;&gt;s4 -->
<g id="edge5" class="edge">
<title>s4&#45;&gt;s4</title>
<path fill="none" stroke="black" d="M190.53,-113.85C201.51,-114.62 211,-111.92 211,-105.75 211,-101.89 207.29,-99.39 201.83,-98.25"/>
<polygon fill="black" stroke="black" points="202.21,-94.76 192.04,-97.73 201.85,-101.75 202.21,-94.76"/>
<text text-anchor="middle" x="273.62" y="-100.33" font-family="Times New Roman,serif" font-size="14.00">(2, 2, 2, &#45;1, &#45;1, &#45;1, 2)/1</text>
</g>
<!-- s5&#45;&gt;s5 -->
<g id="edge6" class="edge">
<title>s5&#45;&gt;s5</title>
<path fill="none" stroke="black" d="M51.53,-26.1C62.51,-26.87 72,-24.17 72,-18 72,-14.14 68.29,-11.64 62.83,-10.5"/>
<polygon fill="black" stroke="black" points="63.21,-7.01 53.04,-9.98 62.85,-14 63.21,-7.01"/>
<text text-anchor="middle" x="130.12" y="-12.57" font-family="Times New Roman,serif" font-size="14.00">(2, 2, 2, 2, 2, 2, &#45;1)/1</text>
</g>
<!-- __start0 -->
<g id="node6" class="node">
<title>__start0</title>
</g>
<!-- __start0&#45;&gt;s0 -->
<g id="edge7" class="edge">
<title>__start0&#45;&gt;s0</title>
<path fill="none" stroke="black" d="M96,-336.42C96,-328.81 96,-319.6 96,-310.95"/>
<polygon fill="black" stroke="black" points="99.5,-311.21 96,-301.21 92.5,-311.21 99.5,-311.21"/>
</g>
<!-- \n -->
<g id="node7" class="node">
<title>\n</title>
<ellipse fill="none" stroke="black" cx="168" cy="-354.25" rx="27" ry="18"/>
</g>
</g>
</svg>
