<?xml version="1.0" encoding="UTF-8" standalone="no"?>
<!DOCTYPE svg PUBLIC "-//W3C//DTD SVG 1.1//EN"
 "http://www.w3.org/Graphics/SVG/1.1/DTD/svg11.dtd">
<!-- Generated by graphviz version 9.0.0 (20230911.1827)
 -->
<!-- Title: automaton Pages: 1 -->
<svg width="420pt" height="293pt"
 viewBox="0.00 0.00 419.75 292.50" xmlns="http://www.w3.org/2000/svg" xmlns:xlink="http://www.w3.org/1999/xlink">
<g id="graph0" class="graph" transform="scale(1 1) rotate(0) translate(4 288.5)">
<title>automaton</title>
<polygon fill="white" stroke="none" points="-4,4 -4,-288.5 415.75,-288.5 415.75,4 -4,4"/>
<!-- s0 -->
<g id="node1" class="node">
<title>s0</title>
<ellipse fill="none" stroke="black" cx="111" cy="-193.5" rx="27" ry="18"/>
<text text-anchor="middle" x="111" y="-188.07" font-family="Times New Roman,serif" font-size="14.00">s0</text>
</g>
<!-- s2 -->
<g id="node2" class="node">
<title>s2</title>
<ellipse fill="none" stroke="black" cx="27" cy="-105.75" rx="27" ry="18"/>
<text text-anchor="middle" x="27" y="-100.33" font-family="Times New Roman,serif" font-size="14.00">s2</text>
</g>
<!-- s0&#45;&gt;s2 -->
<g id="edge1" class="edge">
<title>s0&#45;&gt;s2</title>
<path fill="none" stroke="black" d="M84.6,-188.93C65.49,-184.82 40.89,-176.07 28.25,-157.5 23.84,-151.02 22.34,-142.91 22.27,-135.09"/>
<polygon fill="black" stroke="black" points="25.75,-135.42 22.95,-125.2 18.77,-134.94 25.75,-135.42"/>
<text text-anchor="middle" x="101.38" y="-144.2" font-family="Times New Roman,serif" font-size="14.00">(1, 1, 1, 1, 0, 1, 1, 0, &#45;1)/0</text>
</g>
<!-- s3 -->
<g id="node3" class="node">
<title>s3</title>
<ellipse fill="green" stroke="black" cx="195" cy="-105.75" rx="27" ry="18"/>
<text text-anchor="middle" x="195" y="-100.33" font-family="Times New Roman,serif" font-size="14.00">s3</text>
</g>
<!-- s0&#45;&gt;s3 -->
<g id="edge2" class="edge">
<title>s0&#45;&gt;s3</title>
<path fill="none" stroke="black" d="M134.06,-183.82C146.91,-178.01 162.41,-169.26 173,-157.5 178.92,-150.93 183.43,-142.51 186.77,-134.43"/>
<polygon fill="black" stroke="black" points="189.98,-135.84 190.12,-125.25 183.41,-133.44 189.98,-135.84"/>
<text text-anchor="middle" x="268.88" y="-144.2" font-family="Times New Roman,serif" font-size="14.00">(1, &#45;1, &#45;1, &#45;1, &#45;1, &#45;1, &#45;1, &#45;1, 1)/0</text>
</g>
<!-- s4 -->
<g id="node4" class="node">
<title>s4</title>
<ellipse fill="green" stroke="black" cx="27" cy="-18" rx="27" ry="18"/>
<text text-anchor="middle" x="27" y="-12.57" font-family="Times New Roman,serif" font-size="14.00">s4</text>
</g>
<!-- s2&#45;&gt;s4 -->
<g id="edge3" class="edge">
<title>s2&#45;&gt;s4</title>
<path fill="none" stroke="black" d="M27,-87.4C27,-76.01 27,-60.84 27,-47.68"/>
<polygon fill="black" stroke="black" points="30.5,-47.84 27,-37.84 23.5,-47.84 30.5,-47.84"/>
<text text-anchor="middle" x="99.38" y="-56.45" font-family="Times New Roman,serif" font-size="14.00">(1, 1, 1, 2, 1, 1, 2, 1, &#45;1)/0</text>
</g>
<!-- s3&#45;&gt;s3 -->
<g id="edge4" class="edge">
<title>s3&#45;&gt;s3</title>
<path fill="none" stroke="black" d="M219.53,-113.85C230.51,-114.62 240,-111.92 240,-105.75 240,-101.89 236.29,-99.39 230.83,-98.25"/>
<polygon fill="black" stroke="black" points="231.21,-94.76 221.04,-97.73 230.85,-101.75 231.21,-94.76"/>
<text text-anchor="middle" x="325.88" y="-100.33" font-family="Times New Roman,serif" font-size="14.00">(2, &#45;1, &#45;1, &#45;1, &#45;1, &#45;1, &#45;1, &#45;1, 2)/1</text>
</g>
<!-- s4&#45;&gt;s4 -->
<g id="edge5" class="edge">
<title>s4&#45;&gt;s4</title>
<path fill="none" stroke="black" d="M51.53,-26.1C62.51,-26.87 72,-24.17 72,-18 72,-14.14 68.29,-11.64 62.83,-10.5"/>
<polygon fill="black" stroke="black" points="63.21,-7.01 53.04,-9.98 62.85,-14 63.21,-7.01"/>
<text text-anchor="middle" x="144.38" y="-12.57" font-family="Times New Roman,serif" font-size="14.00">(2, 2, 2, 2, 2, 2, 2, 2, &#45;1)/1</text>
</g>
<!-- __start0 -->
<g id="node5" class="node">
<title>__start0</title>
</g>
<!-- __start0&#45;&gt;s0 -->
<g id="edge6" class="edge">
<title>__start0&#45;&gt;s0</title>
<path fill="none" stroke="black" d="M111,-248.67C111,-241.06 111,-231.85 111,-223.2"/>
<polygon fill="black" stroke="black" points="114.5,-223.46 111,-213.46 107.5,-223.46 114.5,-223.46"/>
</g>
<!-- \n -->
<g id="node6" class="node">
<title>\n</title>
<ellipse fill="none" stroke="black" cx="183" cy="-266.5" rx="27" ry="18"/>
</g>
</g>
</svg>
