<?xml version="1.0" encoding="UTF-8" standalone="no"?>
<!DOCTYPE svg PUBLIC "-//W3C//DTD SVG 1.1//EN"
 "http://www.w3.org/Graphics/SVG/1.1/DTD/svg11.dtd">
<!-- Generated by graphviz version 9.0.0 (20230911.1827)
 -->
<!-- Title: automaton Pages: 1 -->
<svg width="135pt" height="293pt"
 viewBox="0.00 0.00 134.75 292.50" xmlns="http://www.w3.org/2000/svg" xmlns:xlink="http://www.w3.org/1999/xlink">
<g id="graph0" class="graph" transform="scale(1 1) rotate(0) translate(4 288.5)">
<title>automaton</title>
<polygon fill="white" stroke="none" points="-4,4 -4,-288.5 130.75,-288.5 130.75,4 -4,4"/>
<!-- s0 -->
<g id="node1" class="node">
<title>s0</title>
<ellipse fill="none" stroke="black" cx="27" cy="-193.5" rx="27" ry="18"/>
<text text-anchor="middle" x="27" y="-188.07" font-family="Times New Roman,serif" font-size="14.00">s0</text>
</g>
<!-- s1 -->
<g id="node2" class="node">
<title>s1</title>
<ellipse fill="none" stroke="black" cx="27" cy="-105.75" rx="27" ry="18"/>
<text text-anchor="middle" x="27" y="-100.33" font-family="Times New Roman,serif" font-size="14.00">s1</text>
</g>
<!-- s0&#45;&gt;s1 -->
<g id="edge1" class="edge">
<title>s0&#45;&gt;s1</title>
<path fill="none" stroke="black" d="M27,-175.15C27,-163.76 27,-148.59 27,-135.43"/>
<polygon fill="black" stroke="black" points="30.5,-135.59 27,-125.59 23.5,-135.59 30.5,-135.59"/>
<text text-anchor="middle" x="54.38" y="-144.2" font-family="Times New Roman,serif" font-size="14.00">(1, 1, 0)/0</text>
</g>
<!-- s3 -->
<g id="node3" class="node">
<title>s3</title>
<ellipse fill="green" stroke="black" cx="27" cy="-18" rx="27" ry="18"/>
<text text-anchor="middle" x="27" y="-12.57" font-family="Times New Roman,serif" font-size="14.00">s3</text>
</g>
<!-- s1&#45;&gt;s3 -->
<g id="edge2" class="edge">
<title>s1&#45;&gt;s3</title>
<path fill="none" stroke="black" d="M27,-87.4C27,-76.01 27,-60.84 27,-47.68"/>
<polygon fill="black" stroke="black" points="30.5,-47.84 27,-37.84 23.5,-47.84 30.5,-47.84"/>
<text text-anchor="middle" x="54.38" y="-56.45" font-family="Times New Roman,serif" font-size="14.00">(1, 2, 1)/0</text>
</g>
<!-- s3&#45;&gt;s3 -->
<g id="edge3" class="edge">
<title>s3&#45;&gt;s3</title>
<path fill="none" stroke="black" d="M51.53,-26.1C62.51,-26.87 72,-24.17 72,-18 72,-14.14 68.29,-11.64 62.83,-10.5"/>
<polygon fill="black" stroke="black" points="63.21,-7.01 53.04,-9.98 62.85,-14 63.21,-7.01"/>
<text text-anchor="middle" x="99.38" y="-12.57" font-family="Times New Roman,serif" font-size="14.00">(2, 2, 2)/1</text>
</g>
<!-- __start0 -->
<g id="node4" class="node">
<title>__start0</title>
</g>
<!-- __start0&#45;&gt;s0 -->
<g id="edge4" class="edge">
<title>__start0&#45;&gt;s0</title>
<path fill="none" stroke="black" d="M27,-248.67C27,-241.06 27,-231.85 27,-223.2"/>
<polygon fill="black" stroke="black" points="30.5,-223.46 27,-213.46 23.5,-223.46 30.5,-223.46"/>
</g>
<!-- \n -->
<g id="node5" class="node">
<title>\n</title>
<ellipse fill="none" stroke="black" cx="99" cy="-266.5" rx="27" ry="18"/>
</g>
</g>
</svg>
