<?xml version="1.0" encoding="UTF-8" standalone="no"?>
<!DOCTYPE svg PUBLIC "-//W3C//DTD SVG 1.1//EN"
 "http://www.w3.org/Graphics/SVG/1.1/DTD/svg11.dtd">
<!-- Generated by graphviz version 9.0.0 (20230911.1827)
 -->
<!-- Title: automaton Pages: 1 -->
<svg width="402pt" height="380pt"
 viewBox="0.00 0.00 402.25 380.25" xmlns="http://www.w3.org/2000/svg" xmlns:xlink="http://www.w3.org/1999/xlink">
<g id="graph0" class="graph" transform="scale(1 1) rotate(0) translate(4 376.25)">
<title>automaton</title>
<polygon fill="white" stroke="none" points="-4,4 -4,-376.25 398.25,-376.25 398.25,4 -4,4"/>
<!-- s0 -->
<g id="node1" class="node">
<title>s0</title>
<ellipse fill="none" stroke="black" cx="129" cy="-281.25" rx="27" ry="18"/>
<text text-anchor="middle" x="129" y="-275.82" font-family="Times New Roman,serif" font-size="14.00">s0</text>
</g>
<!-- s1 -->
<g id="node2" class="node">
<title>s1</title>
<ellipse fill="none" stroke="black" cx="129" cy="-193.5" rx="27" ry="18"/>
<text text-anchor="middle" x="129" y="-188.07" font-family="Times New Roman,serif" font-size="14.00">s1</text>
</g>
<!-- s0&#45;&gt;s1 -->
<g id="edge1" class="edge">
<title>s0&#45;&gt;s1</title>
<path fill="none" stroke="black" d="M129,-262.9C129,-251.51 129,-236.34 129,-223.18"/>
<polygon fill="black" stroke="black" points="132.5,-223.34 129,-213.34 125.5,-223.34 132.5,-223.34"/>
<text text-anchor="middle" x="184.88" y="-231.95" font-family="Times New Roman,serif" font-size="14.00">(1, 1, 1, 0, 0, 0, 0)/0</text>
</g>
<!-- s3 -->
<g id="node3" class="node">
<title>s3</title>
<ellipse fill="none" stroke="black" cx="60" cy="-105.75" rx="27" ry="18"/>
<text text-anchor="middle" x="60" y="-100.33" font-family="Times New Roman,serif" font-size="14.00">s3</text>
</g>
<!-- s1&#45;&gt;s3 -->
<g id="edge2" class="edge">
<title>s1&#45;&gt;s3</title>
<path fill="none" stroke="black" d="M104.55,-185.55C90.52,-180.23 73.91,-171.39 64.75,-157.5 60.48,-151.02 58.58,-143.03 57.92,-135.32"/>
<polygon fill="black" stroke="black" points="61.43,-135.53 57.76,-125.58 54.43,-135.64 61.43,-135.53"/>
<text text-anchor="middle" x="123.12" y="-144.2" font-family="Times New Roman,serif" font-size="14.00">(1, 1, 2, 1, 1, &#45;1, 0)/0</text>
</g>
<!-- s4 -->
<g id="node4" class="node">
<title>s4</title>
<ellipse fill="none" stroke="black" cx="211" cy="-105.75" rx="27" ry="18"/>
<text text-anchor="middle" x="211" y="-100.33" font-family="Times New Roman,serif" font-size="14.00">s4</text>
</g>
<!-- s1&#45;&gt;s4 -->
<g id="edge3" class="edge">
<title>s1&#45;&gt;s4</title>
<path fill="none" stroke="black" d="M149.59,-181.56C159.85,-175.42 171.97,-167.08 181,-157.5 187.72,-150.38 193.6,-141.5 198.34,-133.16"/>
<polygon fill="black" stroke="black" points="201.39,-134.88 202.99,-124.41 195.21,-131.6 201.39,-134.88"/>
<text text-anchor="middle" x="250.12" y="-144.2" font-family="Times New Roman,serif" font-size="14.00">(1, 1, 2, 1, &#45;1, 1, 0)/0</text>
</g>
<!-- s5 -->
<g id="node5" class="node">
<title>s5</title>
<ellipse fill="none" stroke="black" cx="27" cy="-18" rx="27" ry="18"/>
<text text-anchor="middle" x="27" y="-12.57" font-family="Times New Roman,serif" font-size="14.00">s5</text>
</g>
<!-- s3&#45;&gt;s5 -->
<g id="edge4" class="edge">
<title>s3&#45;&gt;s5</title>
<path fill="none" stroke="black" d="M53.48,-87.81C48.96,-76.06 42.84,-60.16 37.62,-46.6"/>
<polygon fill="black" stroke="black" points="40.91,-45.39 34.05,-37.32 34.38,-47.91 40.91,-45.39"/>
<text text-anchor="middle" x="105.12" y="-56.45" font-family="Times New Roman,serif" font-size="14.00">(1, 2, 2, 2, 2, &#45;1, 1)/0</text>
</g>
<!-- s6 -->
<g id="node6" class="node">
<title>s6</title>
<ellipse fill="green" stroke="black" cx="233" cy="-18" rx="27" ry="18"/>
<text text-anchor="middle" x="233" y="-12.57" font-family="Times New Roman,serif" font-size="14.00">s6</text>
</g>
<!-- s4&#45;&gt;s6 -->
<g id="edge5" class="edge">
<title>s4&#45;&gt;s6</title>
<path fill="none" stroke="black" d="M215.35,-87.81C218.31,-76.26 222.31,-60.68 225.75,-47.27"/>
<polygon fill="black" stroke="black" points="229.12,-48.22 228.21,-37.67 222.34,-46.48 229.12,-48.22"/>
<text text-anchor="middle" x="281.12" y="-56.45" font-family="Times New Roman,serif" font-size="14.00">(1, 2, 2, 2, &#45;1, 2, 1)/0</text>
</g>
<!-- s5&#45;&gt;s5 -->
<g id="edge6" class="edge">
<title>s5&#45;&gt;s5</title>
<path fill="none" stroke="black" d="M51.53,-26.1C62.51,-26.87 72,-24.17 72,-18 72,-14.14 68.29,-11.64 62.83,-10.5"/>
<polygon fill="black" stroke="black" points="63.21,-7.01 53.04,-9.98 62.85,-14 63.21,-7.01"/>
<text text-anchor="middle" x="130.12" y="-12.57" font-family="Times New Roman,serif" font-size="14.00">(2, 2, 2, 2, 2, &#45;1, 2)/1</text>
</g>
<!-- s6&#45;&gt;s6 -->
<g id="edge7" class="edge">
<title>s6&#45;&gt;s6</title>
<path fill="none" stroke="black" d="M257.53,-26.1C268.51,-26.87 278,-24.17 278,-18 278,-14.14 274.29,-11.64 268.83,-10.5"/>
<polygon fill="black" stroke="black" points="269.21,-7.01 259.04,-9.98 268.85,-14 269.21,-7.01"/>
<text text-anchor="middle" x="336.12" y="-12.57" font-family="Times New Roman,serif" font-size="14.00">(2, 2, 2, 2, &#45;1, 2, 2)/1</text>
</g>
<!-- __start0 -->
<g id="node7" class="node">
<title>__start0</title>
</g>
<!-- __start0&#45;&gt;s0 -->
<g id="edge8" class="edge">
<title>__start0&#45;&gt;s0</title>
<path fill="none" stroke="black" d="M129,-336.42C129,-328.81 129,-319.6 129,-310.95"/>
<polygon fill="black" stroke="black" points="132.5,-311.21 129,-301.21 125.5,-311.21 132.5,-311.21"/>
</g>
<!-- \n -->
<g id="node8" class="node">
<title>\n</title>
<ellipse fill="none" stroke="black" cx="201" cy="-354.25" rx="27" ry="18"/>
</g>
</g>
</svg>
