<?xml version="1.0" encoding="UTF-8" standalone="no"?>
<!DOCTYPE svg PUBLIC "-//W3C//DTD SVG 1.1//EN"
 "http://www.w3.org/Graphics/SVG/1.1/DTD/svg11.dtd">
<!-- Generated by graphviz version 9.0.0 (20230911.1827)
 -->
<!-- Title: automaton Pages: 1 -->
<svg width="288pt" height="205pt"
 viewBox="0.00 0.00 288.25 204.75" xmlns="http://www.w3.org/2000/svg" xmlns:xlink="http://www.w3.org/1999/xlink">
<g id="graph0" class="graph" transform="scale(1 1) rotate(0) translate(4 200.75)">
<title>automaton</title>
<polygon fill="white" stroke="none" points="-4,4 -4,-200.75 284.25,-200.75 284.25,4 -4,4"/>
<!-- s0 -->
<g id="node1" class="node">
<title>s0</title>
<ellipse fill="none" stroke="black" cx="101" cy="-105.75" rx="27" ry="18"/>
<text text-anchor="middle" x="101" y="-100.33" font-family="Times New Roman,serif" font-size="14.00">s0</text>
</g>
<!-- s1 -->
<g id="node2" class="node">
<title>s1</title>
<ellipse fill="none" stroke="black" cx="27" cy="-18" rx="27" ry="18"/>
<text text-anchor="middle" x="27" y="-12.57" font-family="Times New Roman,serif" font-size="14.00">s1</text>
</g>
<!-- s0&#45;&gt;s1 -->
<g id="edge1" class="edge">
<title>s0&#45;&gt;s1</title>
<path fill="none" stroke="black" d="M88.11,-89.81C76.83,-76.74 60.24,-57.52 47.2,-42.4"/>
<polygon fill="black" stroke="black" points="50.16,-40.48 40.98,-35.2 44.86,-45.06 50.16,-40.48"/>
<text text-anchor="middle" x="100.62" y="-56.45" font-family="Times New Roman,serif" font-size="14.00">(1, 1, &#45;1)/0</text>
</g>
<!-- s2 -->
<g id="node3" class="node">
<title>s2</title>
<ellipse fill="none" stroke="black" cx="176" cy="-18" rx="27" ry="18"/>
<text text-anchor="middle" x="176" y="-12.57" font-family="Times New Roman,serif" font-size="14.00">s2</text>
</g>
<!-- s0&#45;&gt;s2 -->
<g id="edge2" class="edge">
<title>s0&#45;&gt;s2</title>
<path fill="none" stroke="black" d="M115.02,-90.3C120.97,-84.06 127.92,-76.63 134,-69.75 141.56,-61.19 149.62,-51.58 156.63,-43.05"/>
<polygon fill="black" stroke="black" points="159.19,-45.45 162.8,-35.49 153.77,-41.03 159.19,-45.45"/>
<text text-anchor="middle" x="175.62" y="-56.45" font-family="Times New Roman,serif" font-size="14.00">(1, &#45;1, 1)/0</text>
</g>
<!-- s1&#45;&gt;s1 -->
<g id="edge3" class="edge">
<title>s1&#45;&gt;s1</title>
<path fill="none" stroke="black" d="M51.53,-26.1C62.51,-26.87 72,-24.17 72,-18 72,-14.14 68.29,-11.64 62.83,-10.5"/>
<polygon fill="black" stroke="black" points="63.21,-7.01 53.04,-9.98 62.85,-14 63.21,-7.01"/>
<text text-anchor="middle" x="101.62" y="-12.57" font-family="Times New Roman,serif" font-size="14.00">(2, 2, &#45;1)/1</text>
</g>
<!-- s2&#45;&gt;s2 -->
<g id="edge4" class="edge">
<title>s2&#45;&gt;s2</title>
<path fill="none" stroke="black" d="M200.53,-26.1C211.51,-26.87 221,-24.17 221,-18 221,-14.14 217.29,-11.64 211.83,-10.5"/>
<polygon fill="black" stroke="black" points="212.21,-7.01 202.04,-9.98 211.85,-14 212.21,-7.01"/>
<text text-anchor="middle" x="250.62" y="-12.57" font-family="Times New Roman,serif" font-size="14.00">(2, &#45;1, 2)/1</text>
</g>
<!-- s3 -->
<g id="node4" class="node">
<title>s3</title>
<ellipse fill="none" stroke="black" cx="173" cy="-178.75" rx="27" ry="18"/>
<text text-anchor="middle" x="173" y="-173.32" font-family="Times New Roman,serif" font-size="14.00">s3</text>
</g>
<!-- __start0 -->
<g id="node5" class="node">
<title>__start0</title>
</g>
<!-- __start0&#45;&gt;s0 -->
<g id="edge5" class="edge">
<title>__start0&#45;&gt;s0</title>
<path fill="none" stroke="black" d="M101,-160.92C101,-153.31 101,-144.1 101,-135.45"/>
<polygon fill="black" stroke="black" points="104.5,-135.71 101,-125.71 97.5,-135.71 104.5,-135.71"/>
</g>
<!-- \n -->
<g id="node6" class="node">
<title>\n</title>
<ellipse fill="none" stroke="black" cx="245" cy="-178.75" rx="27" ry="18"/>
</g>
</g>
</svg>
