<?xml version="1.0" encoding="UTF-8" standalone="no"?>
<!DOCTYPE svg PUBLIC "-//W3C//DTD SVG 1.1//EN"
 "http://www.w3.org/Graphics/SVG/1.1/DTD/svg11.dtd">
<!-- Generated by graphviz version 9.0.0 (20230911.1827)
 -->
<!-- Title: automaton Pages: 1 -->
<svg width="834pt" height="293pt"
 viewBox="0.00 0.00 833.75 292.50" xmlns="http://www.w3.org/2000/svg" xmlns:xlink="http://www.w3.org/1999/xlink">
<g id="graph0" class="graph" transform="scale(1 1) rotate(0) translate(4 288.5)">
<title>automaton</title>
<polygon fill="white" stroke="none" points="-4,4 -4,-288.5 829.75,-288.5 829.75,4 -4,4"/>
<!-- s0 -->
<g id="node1" class="node">
<title>s0</title>
<ellipse fill="none" stroke="black" cx="325" cy="-193.5" rx="27" ry="18"/>
<text text-anchor="middle" x="325" y="-188.07" font-family="Times New Roman,serif" font-size="14.00">s0</text>
</g>
<!-- s1 -->
<g id="node2" class="node">
<title>s1</title>
<ellipse fill="none" stroke="black" cx="238" cy="-105.75" rx="27" ry="18"/>
<text text-anchor="middle" x="238" y="-100.33" font-family="Times New Roman,serif" font-size="14.00">s1</text>
</g>
<!-- s0&#45;&gt;s1 -->
<g id="edge1" class="edge">
<title>s0&#45;&gt;s1</title>
<path fill="none" stroke="black" d="M310.24,-177.95C296.66,-164.57 276.32,-144.52 260.67,-129.1"/>
<polygon fill="black" stroke="black" points="263.2,-126.67 253.62,-122.14 258.28,-131.66 263.2,-126.67"/>
<text text-anchor="middle" x="348.12" y="-144.2" font-family="Times New Roman,serif" font-size="14.00">(1, 1, 1, &#45;1, 0, 0, 0)/0</text>
</g>
<!-- s2 -->
<g id="node3" class="node">
<title>s2</title>
<ellipse fill="none" stroke="black" cx="449" cy="-105.75" rx="27" ry="18"/>
<text text-anchor="middle" x="449" y="-100.33" font-family="Times New Roman,serif" font-size="14.00">s2</text>
</g>
<!-- s0&#45;&gt;s2 -->
<g id="edge2" class="edge">
<title>s0&#45;&gt;s2</title>
<path fill="none" stroke="black" d="M349.88,-185.81C367.57,-180.21 391.25,-170.96 409,-157.5 418.19,-150.53 426.45,-140.97 433.04,-132.03"/>
<polygon fill="black" stroke="black" points="435.82,-134.17 438.65,-123.96 430.07,-130.18 435.82,-134.17"/>
<text text-anchor="middle" x="483.12" y="-144.2" font-family="Times New Roman,serif" font-size="14.00">(1, 1, &#45;1, 1, 0, 0, 0)/0</text>
</g>
<!-- s4 -->
<g id="node4" class="node">
<title>s4</title>
<ellipse fill="green" stroke="black" cx="27" cy="-18" rx="27" ry="18"/>
<text text-anchor="middle" x="27" y="-12.57" font-family="Times New Roman,serif" font-size="14.00">s4</text>
</g>
<!-- s1&#45;&gt;s4 -->
<g id="edge3" class="edge">
<title>s1&#45;&gt;s4</title>
<path fill="none" stroke="black" d="M212.5,-99.63C186.81,-94 146.36,-83.85 113.25,-69.75 92.73,-61.01 71.11,-48.28 54.64,-37.75"/>
<polygon fill="black" stroke="black" points="56.67,-34.89 46.38,-32.36 52.85,-40.76 56.67,-34.89"/>
<text text-anchor="middle" x="174.38" y="-56.45" font-family="Times New Roman,serif" font-size="14.00">(1, 2, 2, &#45;1, 1, 1, &#45;1)/0</text>
</g>
<!-- s5 -->
<g id="node5" class="node">
<title>s5</title>
<ellipse fill="green" stroke="black" cx="238" cy="-18" rx="27" ry="18"/>
<text text-anchor="middle" x="238" y="-12.57" font-family="Times New Roman,serif" font-size="14.00">s5</text>
</g>
<!-- s1&#45;&gt;s5 -->
<g id="edge4" class="edge">
<title>s1&#45;&gt;s5</title>
<path fill="none" stroke="black" d="M238,-87.4C238,-76.01 238,-60.84 238,-47.68"/>
<polygon fill="black" stroke="black" points="241.5,-47.84 238,-37.84 234.5,-47.84 241.5,-47.84"/>
<text text-anchor="middle" x="298.38" y="-56.45" font-family="Times New Roman,serif" font-size="14.00">(1, 2, 2, &#45;1, 1, &#45;1, 1)/0</text>
</g>
<!-- s6 -->
<g id="node6" class="node">
<title>s6</title>
<ellipse fill="green" stroke="black" cx="449" cy="-18" rx="27" ry="18"/>
<text text-anchor="middle" x="449" y="-12.57" font-family="Times New Roman,serif" font-size="14.00">s6</text>
</g>
<!-- s2&#45;&gt;s6 -->
<g id="edge5" class="edge">
<title>s2&#45;&gt;s6</title>
<path fill="none" stroke="black" d="M449,-87.4C449,-76.01 449,-60.84 449,-47.68"/>
<polygon fill="black" stroke="black" points="452.5,-47.84 449,-37.84 445.5,-47.84 452.5,-47.84"/>
<text text-anchor="middle" x="509.38" y="-56.45" font-family="Times New Roman,serif" font-size="14.00">(1, 2, &#45;1, 2, 1, 1, &#45;1)/0</text>
</g>
<!-- s7 -->
<g id="node7" class="node">
<title>s7</title>
<ellipse fill="green" stroke="black" cx="660" cy="-18" rx="27" ry="18"/>
<text text-anchor="middle" x="660" y="-12.57" font-family="Times New Roman,serif" font-size="14.00">s7</text>
</g>
<!-- s2&#45;&gt;s7 -->
<g id="edge6" class="edge">
<title>s2&#45;&gt;s7</title>
<path fill="none" stroke="black" d="M474.56,-99.64C500.3,-94.03 540.83,-83.89 574,-69.75 594.47,-61.02 616.03,-48.29 632.45,-37.76"/>
<polygon fill="black" stroke="black" points="634.23,-40.78 640.68,-32.37 630.4,-34.92 634.23,-40.78"/>
<text text-anchor="middle" x="664.38" y="-56.45" font-family="Times New Roman,serif" font-size="14.00">(1, 2, &#45;1, 2, 1, &#45;1, 1)/0</text>
</g>
<!-- s4&#45;&gt;s4 -->
<g id="edge7" class="edge">
<title>s4&#45;&gt;s4</title>
<path fill="none" stroke="black" d="M51.53,-26.1C62.51,-26.87 72,-24.17 72,-18 72,-14.14 68.29,-11.64 62.83,-10.5"/>
<polygon fill="black" stroke="black" points="63.21,-7.01 53.04,-9.98 62.85,-14 63.21,-7.01"/>
<text text-anchor="middle" x="132.38" y="-12.57" font-family="Times New Roman,serif" font-size="14.00">(2, 2, 2, &#45;1, 2, 2, &#45;1)/1</text>
</g>
<!-- s5&#45;&gt;s5 -->
<g id="edge8" class="edge">
<title>s5&#45;&gt;s5</title>
<path fill="none" stroke="black" d="M262.53,-26.1C273.51,-26.87 283,-24.17 283,-18 283,-14.14 279.29,-11.64 273.83,-10.5"/>
<polygon fill="black" stroke="black" points="274.21,-7.01 264.04,-9.98 273.85,-14 274.21,-7.01"/>
<text text-anchor="middle" x="343.38" y="-12.57" font-family="Times New Roman,serif" font-size="14.00">(2, 2, 2, &#45;1, 2, &#45;1, 2)/1</text>
</g>
<!-- s6&#45;&gt;s6 -->
<g id="edge9" class="edge">
<title>s6&#45;&gt;s6</title>
<path fill="none" stroke="black" d="M473.53,-26.1C484.51,-26.87 494,-24.17 494,-18 494,-14.14 490.29,-11.64 484.83,-10.5"/>
<polygon fill="black" stroke="black" points="485.21,-7.01 475.04,-9.98 484.85,-14 485.21,-7.01"/>
<text text-anchor="middle" x="554.38" y="-12.57" font-family="Times New Roman,serif" font-size="14.00">(2, 2, &#45;1, 2, 2, 2, &#45;1)/1</text>
</g>
<!-- s7&#45;&gt;s7 -->
<g id="edge10" class="edge">
<title>s7&#45;&gt;s7</title>
<path fill="none" stroke="black" d="M684.53,-26.1C695.51,-26.87 705,-24.17 705,-18 705,-14.14 701.29,-11.64 695.83,-10.5"/>
<polygon fill="black" stroke="black" points="696.21,-7.01 686.04,-9.98 695.85,-14 696.21,-7.01"/>
<text text-anchor="middle" x="765.38" y="-12.57" font-family="Times New Roman,serif" font-size="14.00">(2, 2, &#45;1, 2, 2, &#45;1, 2)/1</text>
</g>
<!-- __start0 -->
<g id="node8" class="node">
<title>__start0</title>
</g>
<!-- __start0&#45;&gt;s0 -->
<g id="edge11" class="edge">
<title>__start0&#45;&gt;s0</title>
<path fill="none" stroke="black" d="M325,-248.67C325,-241.06 325,-231.85 325,-223.2"/>
<polygon fill="black" stroke="black" points="328.5,-223.46 325,-213.46 321.5,-223.46 328.5,-223.46"/>
</g>
<!-- \n -->
<g id="node9" class="node">
<title>\n</title>
<ellipse fill="none" stroke="black" cx="397" cy="-266.5" rx="27" ry="18"/>
</g>
</g>
</svg>
