<?xml version="1.0" encoding="UTF-8" standalone="no"?>
<!DOCTYPE svg PUBLIC "-//W3C//DTD SVG 1.1//EN"
 "http://www.w3.org/Graphics/SVG/1.1/DTD/svg11.dtd">
<!-- Generated by graphviz version 9.0.0 (20230911.1827)
 -->
<!-- Title: automaton Pages: 1 -->
<svg width="355pt" height="293pt"
 viewBox="0.00 0.00 354.75 292.50" xmlns="http://www.w3.org/2000/svg" xmlns:xlink="http://www.w3.org/1999/xlink">
<g id="graph0" class="graph" transform="scale(1 1) rotate(0) translate(4 288.5)">
<title>automaton</title>
<polygon fill="white" stroke="none" points="-4,4 -4,-288.5 350.75,-288.5 350.75,4 -4,4"/>
<!-- s0 -->
<g id="node1" class="node">
<title>s0</title>
<ellipse fill="none" stroke="black" cx="120" cy="-193.5" rx="27" ry="18"/>
<text text-anchor="middle" x="120" y="-188.07" font-family="Times New Roman,serif" font-size="14.00">s0</text>
</g>
<!-- s1 -->
<g id="node2" class="node">
<title>s1</title>
<ellipse fill="none" stroke="black" cx="27" cy="-105.75" rx="27" ry="18"/>
<text text-anchor="middle" x="27" y="-100.33" font-family="Times New Roman,serif" font-size="14.00">s1</text>
</g>
<!-- s0&#45;&gt;s1 -->
<g id="edge1" class="edge">
<title>s0&#45;&gt;s1</title>
<path fill="none" stroke="black" d="M103.47,-179.18C95.69,-172.77 86.36,-164.89 78.25,-157.5 68.43,-148.55 57.95,-138.3 49.04,-129.37"/>
<polygon fill="black" stroke="black" points="51.64,-127.02 42.12,-122.37 46.66,-131.94 51.64,-127.02"/>
<text text-anchor="middle" x="127.38" y="-144.2" font-family="Times New Roman,serif" font-size="14.00">(1, 1, &#45;1, &#45;1, &#45;1)/0</text>
</g>
<!-- s2 -->
<g id="node3" class="node">
<title>s2</title>
<ellipse fill="none" stroke="black" cx="214" cy="-105.75" rx="27" ry="18"/>
<text text-anchor="middle" x="214" y="-100.33" font-family="Times New Roman,serif" font-size="14.00">s2</text>
</g>
<!-- s0&#45;&gt;s2 -->
<g id="edge2" class="edge">
<title>s0&#45;&gt;s2</title>
<path fill="none" stroke="black" d="M140.79,-181.59C151.63,-175.35 164.73,-166.9 175,-157.5 183.22,-149.98 190.98,-140.56 197.39,-131.89"/>
<polygon fill="black" stroke="black" points="200.2,-133.98 203.12,-123.79 194.48,-129.94 200.2,-133.98"/>
<text text-anchor="middle" x="233.88" y="-144.2" font-family="Times New Roman,serif" font-size="14.00">(1, &#45;1, 1, 1, 0)/0</text>
</g>
<!-- s1&#45;&gt;s1 -->
<g id="edge3" class="edge">
<title>s1&#45;&gt;s1</title>
<path fill="none" stroke="black" d="M51.53,-113.85C62.51,-114.62 72,-111.92 72,-105.75 72,-101.89 68.29,-99.39 62.83,-98.25"/>
<polygon fill="black" stroke="black" points="63.21,-94.76 53.04,-97.73 62.85,-101.75 63.21,-94.76"/>
<text text-anchor="middle" x="120.38" y="-100.33" font-family="Times New Roman,serif" font-size="14.00">(2, 2, &#45;1, &#45;1, &#45;1)/1</text>
</g>
<!-- s4 -->
<g id="node5" class="node">
<title>s4</title>
<ellipse fill="none" stroke="black" cx="214" cy="-18" rx="27" ry="18"/>
<text text-anchor="middle" x="214" y="-12.57" font-family="Times New Roman,serif" font-size="14.00">s4</text>
</g>
<!-- s2&#45;&gt;s4 -->
<g id="edge4" class="edge">
<title>s2&#45;&gt;s4</title>
<path fill="none" stroke="black" d="M214,-87.4C214,-76.01 214,-60.84 214,-47.68"/>
<polygon fill="black" stroke="black" points="217.5,-47.84 214,-37.84 210.5,-47.84 217.5,-47.84"/>
<text text-anchor="middle" x="257.88" y="-56.45" font-family="Times New Roman,serif" font-size="14.00">(1, &#45;1, 1, 2, 1)/0</text>
</g>
<!-- s3 -->
<g id="node4" class="node">
<title>s3</title>
<ellipse fill="none" stroke="black" cx="192" cy="-266.5" rx="27" ry="18"/>
<text text-anchor="middle" x="192" y="-261.07" font-family="Times New Roman,serif" font-size="14.00">s3</text>
</g>
<!-- s4&#45;&gt;s4 -->
<g id="edge5" class="edge">
<title>s4&#45;&gt;s4</title>
<path fill="none" stroke="black" d="M238.53,-26.1C249.51,-26.87 259,-24.17 259,-18 259,-14.14 255.29,-11.64 249.83,-10.5"/>
<polygon fill="black" stroke="black" points="250.21,-7.01 240.04,-9.98 249.85,-14 250.21,-7.01"/>
<text text-anchor="middle" x="302.88" y="-12.57" font-family="Times New Roman,serif" font-size="14.00">(2, &#45;1, 2, 2, 2)/1</text>
</g>
<!-- __start0 -->
<g id="node6" class="node">
<title>__start0</title>
</g>
<!-- __start0&#45;&gt;s0 -->
<g id="edge6" class="edge">
<title>__start0&#45;&gt;s0</title>
<path fill="none" stroke="black" d="M120,-248.67C120,-241.06 120,-231.85 120,-223.2"/>
<polygon fill="black" stroke="black" points="123.5,-223.46 120,-213.46 116.5,-223.46 123.5,-223.46"/>
</g>
<!-- \n -->
<g id="node7" class="node">
<title>\n</title>
<ellipse fill="none" stroke="black" cx="264" cy="-266.5" rx="27" ry="18"/>
</g>
</g>
</svg>
