<?xml version="1.0" encoding="UTF-8" standalone="no"?>
<!DOCTYPE svg PUBLIC "-//W3C//DTD SVG 1.1//EN"
 "http://www.w3.org/Graphics/SVG/1.1/DTD/svg11.dtd">
<!-- Generated by graphviz version 9.0.0 (20230911.1827)
 -->
<!-- Title: my_graph Pages: 1 -->
<svg width="1091pt" height="98pt"
 viewBox="0.00 0.00 1091.25 98.00" xmlns="http://www.w3.org/2000/svg" xmlns:xlink="http://www.w3.org/1999/xlink">
<g id="graph0" class="graph" transform="scale(1 1) rotate(0) translate(4 94)">
<title>my_graph</title>
<polygon fill="white" stroke="none" points="-4,4 -4,-94 1087.25,-94 1087.25,4 -4,4"/>
<!-- start -->
<g id="node1" class="node">
<title>start</title>
<ellipse fill="#9aff9a" stroke="black" cx="18" cy="-44" rx="18" ry="18"/>
</g>
<!-- node_1 -->
<g id="node5" class="node">
<title>node_1</title>
<polygon fill="orange" stroke="black" points="100,-62 73,-44 100,-26 127,-44 100,-62"/>
<text text-anchor="middle" x="100" y="-38.58" font-family="Times New Roman,serif" font-size="14.00">N</text>
</g>
<!-- start&#45;&gt;node_1 -->
<g id="edge10" class="edge">
<title>start&#45;&gt;node_1</title>
<path fill="none" stroke="black" d="M36.36,-44C43.56,-44 52.23,-44 60.78,-44"/>
<polygon fill="black" stroke="black" points="60.72,-47.5 70.72,-44 60.72,-40.5 60.72,-47.5"/>
</g>
<!-- end -->
<g id="node2" class="node">
<title>end</title>
<ellipse fill="orangered" stroke="black" cx="1061.25" cy="-44" rx="18" ry="18"/>
<ellipse fill="none" stroke="black" cx="1061.25" cy="-44" rx="22" ry="22"/>
</g>
<!-- node_2 -->
<g id="node3" class="node">
<title>node_2</title>
<path fill="lightblue" stroke="black" d="M424.25,-90C424.25,-90 192.25,-90 192.25,-90 186.25,-90 180.25,-84 180.25,-78 180.25,-78 180.25,-66 180.25,-66 180.25,-60 186.25,-54 192.25,-54 192.25,-54 424.25,-54 424.25,-54 430.25,-54 436.25,-60 436.25,-66 436.25,-66 436.25,-78 436.25,-78 436.25,-84 430.25,-90 424.25,-90"/>
<text text-anchor="middle" x="308.25" y="-66.58" font-family="Times New Roman,serif" font-size="14.00">T1, impacts: cost: 1, hours: 2, dur: [0, 100]</text>
</g>
<!-- node_4 -->
<g id="node6" class="node">
<title>node_4</title>
<polygon fill="orange" stroke="black" points="500.25,-62 473.25,-44 500.25,-26 527.25,-44 500.25,-62"/>
<text text-anchor="middle" x="500.25" y="-38.58" font-family="Times New Roman,serif" font-size="14.00">N</text>
</g>
<!-- node_2&#45;&gt;node_4 -->
<g id="edge2" class="edge">
<title>node_2&#45;&gt;node_4</title>
<path fill="none" stroke="black" d="M434.66,-53.52C446.02,-51.84 456.74,-50.27 466.05,-48.89"/>
<polygon fill="black" stroke="black" points="466.54,-52.36 475.93,-47.44 465.52,-45.43 466.54,-52.36"/>
</g>
<!-- node_3 -->
<g id="node4" class="node">
<title>node_3</title>
<path fill="lightblue" stroke="black" d="M424.25,-36C424.25,-36 192.25,-36 192.25,-36 186.25,-36 180.25,-30 180.25,-24 180.25,-24 180.25,-12 180.25,-12 180.25,-6 186.25,0 192.25,0 192.25,0 424.25,0 424.25,0 430.25,0 436.25,-6 436.25,-12 436.25,-12 436.25,-24 436.25,-24 436.25,-30 430.25,-36 424.25,-36"/>
<text text-anchor="middle" x="308.25" y="-12.57" font-family="Times New Roman,serif" font-size="14.00">T2, impacts: cost: 2, hours: 1, dur: [0, 100]</text>
</g>
<!-- node_3&#45;&gt;node_4 -->
<g id="edge4" class="edge">
<title>node_3&#45;&gt;node_4</title>
<path fill="none" stroke="black" d="M436.51,-35.41C447.11,-36.86 457.1,-38.23 465.86,-39.43"/>
<polygon fill="black" stroke="black" points="465.1,-42.86 475.48,-40.75 466.05,-35.92 465.1,-42.86"/>
</g>
<!-- node_1&#45;&gt;node_2 -->
<g id="edge1" class="edge">
<title>node_1&#45;&gt;node_2</title>
<path fill="none" stroke="black" d="M123.07,-47C135.12,-48.63 151.16,-50.81 168.76,-53.2"/>
<polygon fill="black" stroke="black" points="168.01,-56.63 178.39,-54.51 168.96,-49.69 168.01,-56.63"/>
<text text-anchor="middle" x="153.62" y="-54.45" font-family="Times New Roman,serif" font-size="14.00">0.5</text>
</g>
<!-- node_1&#45;&gt;node_3 -->
<g id="edge3" class="edge">
<title>node_1&#45;&gt;node_3</title>
<path fill="none" stroke="black" d="M117.9,-37.73C125.99,-34.98 135.88,-32 145,-30.25 152.64,-28.79 160.51,-27.5 168.47,-26.36"/>
<polygon fill="black" stroke="black" points="168.84,-29.85 178.29,-25.05 167.91,-22.91 168.84,-29.85"/>
<text text-anchor="middle" x="153.62" y="-33.45" font-family="Times New Roman,serif" font-size="14.00">0.5</text>
</g>
<!-- node_5 -->
<g id="node9" class="node">
<title>node_5</title>
<polygon fill="orange" stroke="black" points="591.25,-62 564.25,-44 591.25,-26 618.25,-44 591.25,-62"/>
<text text-anchor="middle" x="591.25" y="-38.58" font-family="Times New Roman,serif" font-size="14.00">X</text>
</g>
<!-- node_4&#45;&gt;node_5 -->
<g id="edge9" class="edge">
<title>node_4&#45;&gt;node_5</title>
<path fill="none" stroke="black" d="M527.95,-44C535.61,-44 544.11,-44 552.3,-44"/>
<polygon fill="black" stroke="black" points="552.05,-47.5 562.05,-44 552.05,-40.5 552.05,-47.5"/>
</g>
<!-- node_6 -->
<g id="node7" class="node">
<title>node_6</title>
<path fill="lightblue" stroke="black" d="M899.25,-90C899.25,-90 667.25,-90 667.25,-90 661.25,-90 655.25,-84 655.25,-78 655.25,-78 655.25,-66 655.25,-66 655.25,-60 661.25,-54 667.25,-54 667.25,-54 899.25,-54 899.25,-54 905.25,-54 911.25,-60 911.25,-66 911.25,-66 911.25,-78 911.25,-78 911.25,-84 905.25,-90 899.25,-90"/>
<text text-anchor="middle" x="783.25" y="-66.58" font-family="Times New Roman,serif" font-size="14.00">T3, impacts: cost: 2, hours: 1, dur: [0, 100]</text>
</g>
<!-- node_8 -->
<g id="node10" class="node">
<title>node_8</title>
<polygon fill="orange" stroke="black" points="975.25,-62 948.25,-44 975.25,-26 1002.25,-44 975.25,-62"/>
<text text-anchor="middle" x="975.25" y="-38.58" font-family="Times New Roman,serif" font-size="14.00">X</text>
</g>
<!-- node_6&#45;&gt;node_8 -->
<g id="edge6" class="edge">
<title>node_6&#45;&gt;node_8</title>
<path fill="none" stroke="black" d="M909.66,-53.52C921.02,-51.84 931.74,-50.27 941.05,-48.89"/>
<polygon fill="black" stroke="black" points="941.54,-52.36 950.93,-47.44 940.52,-45.43 941.54,-52.36"/>
</g>
<!-- node_7 -->
<g id="node8" class="node">
<title>node_7</title>
<path fill="lightblue" stroke="black" d="M899.25,-36C899.25,-36 667.25,-36 667.25,-36 661.25,-36 655.25,-30 655.25,-24 655.25,-24 655.25,-12 655.25,-12 655.25,-6 661.25,0 667.25,0 667.25,0 899.25,0 899.25,0 905.25,0 911.25,-6 911.25,-12 911.25,-12 911.25,-24 911.25,-24 911.25,-30 905.25,-36 899.25,-36"/>
<text text-anchor="middle" x="783.25" y="-12.57" font-family="Times New Roman,serif" font-size="14.00">T4, impacts: cost: 1, hours: 2, dur: [0, 100]</text>
</g>
<!-- node_7&#45;&gt;node_8 -->
<g id="edge8" class="edge">
<title>node_7&#45;&gt;node_8</title>
<path fill="none" stroke="black" d="M911.51,-35.41C922.11,-36.86 932.1,-38.23 940.86,-39.43"/>
<polygon fill="black" stroke="black" points="940.1,-42.86 950.48,-40.75 941.05,-35.92 940.1,-42.86"/>
</g>
<!-- node_5&#45;&gt;node_6 -->
<g id="edge5" class="edge">
<title>node_5&#45;&gt;node_6</title>
<path fill="none" stroke="black" d="M614.05,-47.21C622.78,-48.5 633.6,-50.09 645.52,-51.85"/>
<polygon fill="black" stroke="black" points="644.84,-55.29 655.25,-53.28 645.86,-48.36 644.84,-55.29"/>
</g>
<!-- node_5&#45;&gt;node_7 -->
<g id="edge7" class="edge">
<title>node_5&#45;&gt;node_7</title>
<path fill="none" stroke="black" d="M614.42,-40.97C622.64,-39.84 632.68,-38.47 643.73,-36.96"/>
<polygon fill="black" stroke="black" points="644.14,-40.43 653.57,-35.61 643.19,-33.5 644.14,-40.43"/>
</g>
<!-- node_8&#45;&gt;end -->
<g id="edge11" class="edge">
<title>node_8&#45;&gt;end</title>
<path fill="none" stroke="black" d="M1002.83,-44C1010.64,-44 1019.29,-44 1027.44,-44"/>
<polygon fill="black" stroke="black" points="1027.38,-47.5 1037.38,-44 1027.38,-40.5 1027.38,-47.5"/>
</g>
</g>
</svg>
