<?xml version="1.0" encoding="UTF-8" standalone="no"?>
<!DOCTYPE svg PUBLIC "-//W3C//DTD SVG 1.1//EN"
 "http://www.w3.org/Graphics/SVG/1.1/DTD/svg11.dtd">
<!-- Generated by graphviz version 9.0.0 (20230911.1827)
 -->
<!-- Title: my_graph Pages: 1 -->
<svg width="775pt" height="144pt"
 viewBox="0.00 0.00 775.00 144.00" xmlns="http://www.w3.org/2000/svg" xmlns:xlink="http://www.w3.org/1999/xlink">
<g id="graph0" class="graph" transform="scale(1 1) rotate(0) translate(4 140)">
<title>my_graph</title>
<polygon fill="white" stroke="none" points="-4,4 -4,-140 771,-140 771,4 -4,4"/>
<!-- start -->
<g id="node1" class="node">
<title>start</title>
<ellipse fill="#9aff9a" stroke="black" cx="18" cy="-37" rx="18" ry="18"/>
</g>
<!-- node_0 -->
<g id="node10" class="node">
<title>node_0</title>
<polygon fill="orange" stroke="black" points="100,-55 73,-37 100,-19 127,-37 100,-55"/>
<text text-anchor="middle" x="100" y="-31.57" font-family="Times New Roman,serif" font-size="14.00">N</text>
</g>
<!-- start&#45;&gt;node_0 -->
<g id="edge11" class="edge">
<title>start&#45;&gt;node_0</title>
<path fill="none" stroke="black" d="M36.36,-37C43.56,-37 52.23,-37 60.78,-37"/>
<polygon fill="black" stroke="black" points="60.72,-40.5 70.72,-37 60.72,-33.5 60.72,-40.5"/>
</g>
<!-- end -->
<g id="node2" class="node">
<title>end</title>
<ellipse fill="orangered" stroke="black" cx="745" cy="-30" rx="18" ry="18"/>
<ellipse fill="none" stroke="black" cx="745" cy="-30" rx="22" ry="22"/>
</g>
<!-- node_3 -->
<g id="node3" class="node">
<title>node_3</title>
<path fill="lightblue" stroke="black" d="M401,-136C401,-136 336.25,-136 336.25,-136 330.25,-136 324.25,-130 324.25,-124 324.25,-124 324.25,-112 324.25,-112 324.25,-106 330.25,-100 336.25,-100 336.25,-100 401,-100 401,-100 407,-100 413,-106 413,-112 413,-112 413,-124 413,-124 413,-130 407,-136 401,-136"/>
<text text-anchor="middle" x="368.62" y="-112.58" font-family="Times New Roman,serif" font-size="14.00">SimpleTask1</text>
</g>
<!-- node_4 -->
<g id="node4" class="node">
<title>node_4</title>
<path fill="lightblue" stroke="black" d="M492,-136C492,-136 462,-136 462,-136 456,-136 450,-130 450,-124 450,-124 450,-112 450,-112 450,-106 456,-100 462,-100 462,-100 492,-100 492,-100 498,-100 504,-106 504,-112 504,-112 504,-124 504,-124 504,-130 498,-136 492,-136"/>
<text text-anchor="middle" x="477" y="-112.58" font-family="Times New Roman,serif" font-size="14.00">Task1</text>
</g>
<!-- node_3&#45;&gt;node_4 -->
<g id="edge1" class="edge">
<title>node_3&#45;&gt;node_4</title>
<path fill="none" stroke="black" d="M413.2,-118C421.53,-118 430.18,-118 438.3,-118"/>
<polygon fill="black" stroke="black" points="438.21,-121.5 448.21,-118 438.21,-114.5 438.21,-121.5"/>
</g>
<!-- node_8 -->
<g id="node8" class="node">
<title>node_8</title>
<polygon fill="yellowgreen" stroke="black" points="568,-82 541,-64 568,-46 595,-64 568,-82"/>
<text text-anchor="middle" x="568" y="-58.58" font-family="Times New Roman,serif" font-size="14.00">+</text>
</g>
<!-- node_4&#45;&gt;node_8 -->
<g id="edge4" class="edge">
<title>node_4&#45;&gt;node_8</title>
<path fill="none" stroke="black" d="M504.22,-102.09C516.59,-94.58 531.25,-85.69 543.29,-78.39"/>
<polygon fill="black" stroke="black" points="545.04,-81.42 551.78,-73.24 541.41,-75.43 545.04,-81.42"/>
</g>
<!-- node_6 -->
<g id="node5" class="node">
<title>node_6</title>
<path fill="lightblue" stroke="black" d="M383.62,-82C383.62,-82 353.62,-82 353.62,-82 347.62,-82 341.62,-76 341.62,-70 341.62,-70 341.62,-58 341.62,-58 341.62,-52 347.62,-46 353.62,-46 353.62,-46 383.62,-46 383.62,-46 389.62,-46 395.62,-52 395.62,-58 395.62,-58 395.62,-70 395.62,-70 395.62,-76 389.62,-82 383.62,-82"/>
<text text-anchor="middle" x="368.62" y="-58.58" font-family="Times New Roman,serif" font-size="14.00">Task</text>
</g>
<!-- node_7 -->
<g id="node6" class="node">
<title>node_7</title>
<path fill="lightblue" stroke="black" d="M492,-82C492,-82 462,-82 462,-82 456,-82 450,-76 450,-70 450,-70 450,-58 450,-58 450,-52 456,-46 462,-46 462,-46 492,-46 492,-46 498,-46 504,-52 504,-58 504,-58 504,-70 504,-70 504,-76 498,-82 492,-82"/>
<text text-anchor="middle" x="477" y="-58.58" font-family="Times New Roman,serif" font-size="14.00">Task3</text>
</g>
<!-- node_6&#45;&gt;node_7 -->
<g id="edge2" class="edge">
<title>node_6&#45;&gt;node_7</title>
<path fill="none" stroke="black" d="M395.92,-64C408.71,-64 424.3,-64 438.33,-64"/>
<polygon fill="black" stroke="black" points="438.13,-67.5 448.13,-64 438.13,-60.5 438.13,-67.5"/>
</g>
<!-- node_7&#45;&gt;node_8 -->
<g id="edge6" class="edge">
<title>node_7&#45;&gt;node_8</title>
<path fill="none" stroke="black" d="M504.22,-64C511.96,-64 520.59,-64 528.91,-64"/>
<polygon fill="black" stroke="black" points="528.84,-67.5 538.84,-64 528.84,-60.5 528.84,-67.5"/>
</g>
<!-- node_1 -->
<g id="node7" class="node">
<title>node_1</title>
<polygon fill="yellowgreen" stroke="black" points="207.25,-82 180.25,-64 207.25,-46 234.25,-64 207.25,-82"/>
<text text-anchor="middle" x="207.25" y="-58.58" font-family="Times New Roman,serif" font-size="14.00">+</text>
</g>
<!-- node_1&#45;&gt;node_3 -->
<g id="edge3" class="edge">
<title>node_1&#45;&gt;node_3</title>
<path fill="none" stroke="black" d="M225.91,-69.99C246.94,-77.11 283.04,-89.34 313.54,-99.67"/>
<polygon fill="black" stroke="black" points="312.03,-102.86 322.63,-102.75 314.28,-96.23 312.03,-102.86"/>
</g>
<!-- node_1&#45;&gt;node_6 -->
<g id="edge5" class="edge">
<title>node_1&#45;&gt;node_6</title>
<path fill="none" stroke="black" d="M234.93,-64C260.86,-64 300.51,-64 329.71,-64"/>
<polygon fill="black" stroke="black" points="329.61,-67.5 339.61,-64 329.61,-60.5 329.61,-67.5"/>
</g>
<!-- node_10 -->
<g id="node11" class="node">
<title>node_10</title>
<polygon fill="orange" stroke="black" points="659,-48 632,-30 659,-12 686,-30 659,-48"/>
<text text-anchor="middle" x="659" y="-24.57" font-family="Times New Roman,serif" font-size="14.00">N</text>
</g>
<!-- node_8&#45;&gt;node_10 -->
<g id="edge8" class="edge">
<title>node_8&#45;&gt;node_10</title>
<path fill="none" stroke="black" d="M585.74,-57.6C598.34,-52.79 615.88,-46.09 630.53,-40.5"/>
<polygon fill="black" stroke="black" points="631.53,-43.86 639.62,-37.02 629.03,-37.32 631.53,-43.86"/>
</g>
<!-- node_9 -->
<g id="node9" class="node">
<title>node_9</title>
<path fill="lightblue" stroke="black" d="M294.25,-36C294.25,-36 264.25,-36 264.25,-36 258.25,-36 252.25,-30 252.25,-24 252.25,-24 252.25,-12 252.25,-12 252.25,-6 258.25,0 264.25,0 264.25,0 294.25,0 294.25,0 300.25,0 306.25,-6 306.25,-12 306.25,-12 306.25,-24 306.25,-24 306.25,-30 300.25,-36 294.25,-36"/>
<text text-anchor="middle" x="279.25" y="-12.57" font-family="Times New Roman,serif" font-size="14.00">Task9</text>
</g>
<!-- node_9&#45;&gt;node_10 -->
<g id="edge10" class="edge">
<title>node_9&#45;&gt;node_10</title>
<path fill="none" stroke="black" d="M306.66,-18C336.76,-18 387.42,-18 431,-18 431,-18 431,-18 569,-18 588.26,-18 609.65,-20.79 626.63,-23.68"/>
<polygon fill="black" stroke="black" points="625.65,-27.06 636.11,-25.4 626.9,-20.18 625.65,-27.06"/>
</g>
<!-- node_0&#45;&gt;node_1 -->
<g id="edge7" class="edge">
<title>node_0&#45;&gt;node_1</title>
<path fill="none" stroke="black" d="M120.3,-41.95C135.88,-45.95 158.08,-51.64 176.01,-56.24"/>
<polygon fill="black" stroke="black" points="175.05,-59.61 185.6,-58.7 176.79,-52.83 175.05,-59.61"/>
<text text-anchor="middle" x="153.62" y="-55.45" font-family="Times New Roman,serif" font-size="14.00">0.5</text>
</g>
<!-- node_0&#45;&gt;node_9 -->
<g id="edge9" class="edge">
<title>node_0&#45;&gt;node_9</title>
<path fill="none" stroke="black" d="M121.53,-32.99C128.91,-31.65 137.31,-30.25 145,-29.25 177.29,-25.05 214.19,-22.08 240.96,-20.25"/>
<polygon fill="black" stroke="black" points="240.87,-23.76 250.62,-19.61 240.41,-16.77 240.87,-23.76"/>
<text text-anchor="middle" x="153.62" y="-32.45" font-family="Times New Roman,serif" font-size="14.00">0.5</text>
</g>
<!-- node_10&#45;&gt;end -->
<g id="edge12" class="edge">
<title>node_10&#45;&gt;end</title>
<path fill="none" stroke="black" d="M686.58,-30C694.39,-30 703.04,-30 711.19,-30"/>
<polygon fill="black" stroke="black" points="711.13,-33.5 721.13,-30 711.13,-26.5 711.13,-33.5"/>
</g>
</g>
</svg>
