<?xml version="1.0" encoding="UTF-8" standalone="no"?>
<!DOCTYPE svg PUBLIC "-//W3C//DTD SVG 1.1//EN"
 "http://www.w3.org/Graphics/SVG/1.1/DTD/svg11.dtd">
<!-- Generated by graphviz version 9.0.0 (20230911.1827)
 -->
<!-- Title: my_graph Pages: 1 -->
<svg width="784pt" height="52pt"
 viewBox="0.00 0.00 783.75 52.00" xmlns="http://www.w3.org/2000/svg" xmlns:xlink="http://www.w3.org/1999/xlink">
<g id="graph0" class="graph" transform="scale(1 1) rotate(0) translate(4 48)">
<title>my_graph</title>
<polygon fill="white" stroke="none" points="-4,4 -4,-48 779.75,-48 779.75,4 -4,4"/>
<!-- start -->
<g id="node1" class="node">
<title>start</title>
<ellipse fill="#9aff9a" stroke="black" cx="18" cy="-22" rx="18" ry="18"/>
</g>
<!-- node_1 -->
<g id="node3" class="node">
<title>node_1</title>
<path fill="lightblue" stroke="black" d="M373,-40C373,-40 84,-40 84,-40 78,-40 72,-34 72,-28 72,-28 72,-16 72,-16 72,-10 78,-4 84,-4 84,-4 373,-4 373,-4 379,-4 385,-10 385,-16 385,-16 385,-28 385,-28 385,-34 379,-40 373,-40"/>
<text text-anchor="middle" x="228.5" y="-16.57" font-family="Times New Roman,serif" font-size="14.00">SimpleTask1, impacts: cost: 1, hours: 1, dur: [0, 100]</text>
</g>
<!-- start&#45;&gt;node_1 -->
<g id="edge2" class="edge">
<title>start&#45;&gt;node_1</title>
<path fill="none" stroke="black" d="M36.42,-22C43.03,-22 51.23,-22 60.47,-22"/>
<polygon fill="black" stroke="black" points="60.26,-25.5 70.26,-22 60.26,-18.5 60.26,-25.5"/>
</g>
<!-- end -->
<g id="node2" class="node">
<title>end</title>
<ellipse fill="orangered" stroke="black" cx="753.75" cy="-22" rx="18" ry="18"/>
<ellipse fill="none" stroke="black" cx="753.75" cy="-22" rx="22" ry="22"/>
</g>
<!-- node_2 -->
<g id="node4" class="node">
<title>node_2</title>
<path fill="lightblue" stroke="black" d="M683.75,-40C683.75,-40 433,-40 433,-40 427,-40 421,-34 421,-28 421,-28 421,-16 421,-16 421,-10 427,-4 433,-4 433,-4 683.75,-4 683.75,-4 689.75,-4 695.75,-10 695.75,-16 695.75,-16 695.75,-28 695.75,-28 695.75,-34 689.75,-40 683.75,-40"/>
<text text-anchor="middle" x="558.38" y="-16.57" font-family="Times New Roman,serif" font-size="14.00">Task1, impacts: cost: 1, hours: 1, dur: [0, 100]</text>
</g>
<!-- node_1&#45;&gt;node_2 -->
<g id="edge1" class="edge">
<title>node_1&#45;&gt;node_2</title>
<path fill="none" stroke="black" d="M385.28,-22C393.36,-22 401.47,-22 409.53,-22"/>
<polygon fill="black" stroke="black" points="409.37,-25.5 419.37,-22 409.37,-18.5 409.37,-25.5"/>
</g>
<!-- node_2&#45;&gt;end -->
<g id="edge3" class="edge">
<title>node_2&#45;&gt;end</title>
<path fill="none" stroke="black" d="M696.04,-22C704.65,-22 712.75,-22 719.99,-22"/>
<polygon fill="black" stroke="black" points="719.77,-25.5 729.77,-22 719.77,-18.5 719.77,-25.5"/>
</g>
</g>
</svg>
