<?xml version="1.0" encoding="UTF-8" standalone="no"?>
<!DOCTYPE svg PUBLIC "-//W3C//DTD SVG 1.1//EN"
 "http://www.w3.org/Graphics/SVG/1.1/DTD/svg11.dtd">
<!-- Generated by graphviz version 9.0.0 (20230911.1827)
 -->
<!-- Title: my_graph Pages: 1 -->
<svg width="1801pt" height="206pt"
 viewBox="0.00 0.00 1800.75 206.00" xmlns="http://www.w3.org/2000/svg" xmlns:xlink="http://www.w3.org/1999/xlink">
<g id="graph0" class="graph" transform="scale(1 1) rotate(0) translate(4 202)">
<title>my_graph</title>
<polygon fill="white" stroke="none" points="-4,4 -4,-202 1796.75,-202 1796.75,4 -4,4"/>
<!-- start -->
<g id="node1" class="node">
<title>start</title>
<ellipse fill="#9aff9a" stroke="black" cx="18" cy="-98" rx="18" ry="18"/>
</g>
<!-- node_2 -->
<g id="node3" class="node">
<title>node_2</title>
<path fill="lightblue" stroke="black" d="M305.75,-116C305.75,-116 85,-116 85,-116 79,-116 73,-110 73,-104 73,-104 73,-92 73,-92 73,-86 79,-80 85,-80 85,-80 305.75,-80 305.75,-80 311.75,-80 317.75,-86 317.75,-92 317.75,-92 317.75,-104 317.75,-104 317.75,-110 311.75,-116 305.75,-116"/>
<text text-anchor="middle" x="195.38" y="-92.58" font-family="Times New Roman,serif" font-size="14.00">Cutting, impacts: c: 10 w: 1, dur: [20, 73]</text>
</g>
<!-- start&#45;&gt;node_2 -->
<g id="edge21" class="edge">
<title>start&#45;&gt;node_2</title>
<path fill="none" stroke="black" d="M36.46,-98C43.38,-98 51.99,-98 61.59,-98"/>
<polygon fill="black" stroke="black" points="61.3,-101.5 71.3,-98 61.3,-94.5 61.3,-101.5"/>
</g>
<!-- end -->
<g id="node2" class="node">
<title>end</title>
<ellipse fill="orangered" stroke="black" cx="1770.75" cy="-98" rx="18" ry="18"/>
<ellipse fill="none" stroke="black" cx="1770.75" cy="-98" rx="22" ry="22"/>
</g>
<!-- node_3 -->
<g id="node14" class="node">
<title>node_3</title>
<polygon fill="yellowgreen" stroke="black" points="381.75,-116 354.75,-98 381.75,-80 408.75,-98 381.75,-116"/>
<text text-anchor="middle" x="381.75" y="-92.58" font-family="Times New Roman,serif" font-size="14.00">+</text>
</g>
<!-- node_2&#45;&gt;node_3 -->
<g id="edge15" class="edge">
<title>node_2&#45;&gt;node_3</title>
<path fill="none" stroke="black" d="M318.07,-98C326.7,-98 334.94,-98 342.45,-98"/>
<polygon fill="black" stroke="black" points="342.44,-101.5 352.44,-98 342.44,-94.5 342.44,-101.5"/>
</g>
<!-- node_5 -->
<g id="node4" class="node">
<title>node_5</title>
<path fill="lightblue" stroke="black" d="M690.5,-144C690.5,-144 457.75,-144 457.75,-144 451.75,-144 445.75,-138 445.75,-132 445.75,-132 445.75,-120 445.75,-120 445.75,-114 451.75,-108 457.75,-108 457.75,-108 690.5,-108 690.5,-108 696.5,-108 702.5,-114 702.5,-120 702.5,-120 702.5,-132 702.5,-132 702.5,-138 696.5,-144 690.5,-144"/>
<text text-anchor="middle" x="574.12" y="-120.58" font-family="Times New Roman,serif" font-size="14.00">Bending, impacts: c: 20 w: 1, dur: [66, 100]</text>
</g>
<!-- node_6 -->
<g id="node7" class="node">
<title>node_6</title>
<polygon fill="orange" stroke="black" points="766.5,-144 739.5,-126 766.5,-108 793.5,-126 766.5,-144"/>
<text text-anchor="middle" x="766.5" y="-120.58" font-family="Times New Roman,serif" font-size="14.00">N</text>
</g>
<!-- node_5&#45;&gt;node_6 -->
<g id="edge5" class="edge">
<title>node_5&#45;&gt;node_6</title>
<path fill="none" stroke="black" d="M702.9,-126C711.57,-126 719.82,-126 727.33,-126"/>
<polygon fill="black" stroke="black" points="727.31,-129.5 737.31,-126 727.31,-122.5 727.31,-129.5"/>
</g>
<!-- node_7 -->
<g id="node5" class="node">
<title>node_7</title>
<path fill="lightblue" stroke="black" d="M1057.75,-198C1057.75,-198 866.25,-198 866.25,-198 860.25,-198 854.25,-192 854.25,-186 854.25,-186 854.25,-174 854.25,-174 854.25,-168 860.25,-162 866.25,-162 866.25,-162 1057.75,-162 1057.75,-162 1063.75,-162 1069.75,-168 1069.75,-174 1069.75,-174 1069.75,-186 1069.75,-186 1069.75,-192 1063.75,-198 1057.75,-198"/>
<text text-anchor="middle" x="962" y="-174.57" font-family="Times New Roman,serif" font-size="14.00">HP, impacts: c: 5 w: 4, dur: [17, 74]</text>
</g>
<!-- node_9 -->
<g id="node8" class="node">
<title>node_9</title>
<polygon fill="orange" stroke="black" points="1141.25,-144 1114.25,-126 1141.25,-108 1168.25,-126 1141.25,-144"/>
<text text-anchor="middle" x="1141.25" y="-120.58" font-family="Times New Roman,serif" font-size="14.00">N</text>
</g>
<!-- node_7&#45;&gt;node_9 -->
<g id="edge2" class="edge">
<title>node_7&#45;&gt;node_9</title>
<path fill="none" stroke="black" d="M1048.31,-161.56C1058.14,-158.93 1067.96,-156.06 1077.25,-153 1089.71,-148.89 1103.12,-143.31 1114.36,-138.3"/>
<polygon fill="black" stroke="black" points="1115.74,-141.51 1123.37,-134.17 1112.82,-135.15 1115.74,-141.51"/>
</g>
<!-- node_8 -->
<g id="node6" class="node">
<title>node_8</title>
<path fill="lightblue" stroke="black" d="M1053.62,-144C1053.62,-144 870.38,-144 870.38,-144 864.38,-144 858.38,-138 858.38,-132 858.38,-132 858.38,-120 858.38,-120 858.38,-114 864.38,-108 870.38,-108 870.38,-108 1053.62,-108 1053.62,-108 1059.62,-108 1065.62,-114 1065.62,-120 1065.62,-120 1065.62,-132 1065.62,-132 1065.62,-138 1059.62,-144 1053.62,-144"/>
<text text-anchor="middle" x="962" y="-120.58" font-family="Times New Roman,serif" font-size="14.00">LP, impacts: c: 5 w: 1, dur: [0, 58]</text>
</g>
<!-- node_8&#45;&gt;node_9 -->
<g id="edge4" class="edge">
<title>node_8&#45;&gt;node_9</title>
<path fill="none" stroke="black" d="M1066.11,-126C1078.97,-126 1091.42,-126 1102.32,-126"/>
<polygon fill="black" stroke="black" points="1101.98,-129.5 1111.98,-126 1101.98,-122.5 1101.98,-129.5"/>
</g>
<!-- node_6&#45;&gt;node_7 -->
<g id="edge1" class="edge">
<title>node_6&#45;&gt;node_7</title>
<path fill="none" stroke="black" d="M782.67,-133.82C791.01,-137.88 801.64,-142.68 811.5,-146 825.61,-150.76 840.68,-155.06 855.64,-158.87"/>
<polygon fill="black" stroke="black" points="854.47,-162.19 865.02,-161.2 856.15,-155.39 854.47,-162.19"/>
<text text-anchor="middle" x="820.12" y="-153.45" font-family="Times New Roman,serif" font-size="14.00">0.2</text>
</g>
<!-- node_6&#45;&gt;node_8 -->
<g id="edge3" class="edge">
<title>node_6&#45;&gt;node_8</title>
<path fill="none" stroke="black" d="M794,-126C808.26,-126 826.93,-126 846.61,-126"/>
<polygon fill="black" stroke="black" points="846.44,-129.5 856.44,-126 846.44,-122.5 846.44,-129.5"/>
<text text-anchor="middle" x="820.12" y="-128.45" font-family="Times New Roman,serif" font-size="14.00">0.8</text>
</g>
<!-- node_16 -->
<g id="node15" class="node">
<title>node_16</title>
<polygon fill="yellowgreen" stroke="black" points="1232.25,-116 1205.25,-98 1232.25,-80 1259.25,-98 1232.25,-116"/>
<text text-anchor="middle" x="1232.25" y="-92.58" font-family="Times New Roman,serif" font-size="14.00">+</text>
</g>
<!-- node_9&#45;&gt;node_16 -->
<g id="edge12" class="edge">
<title>node_9&#45;&gt;node_16</title>
<path fill="none" stroke="black" d="M1160.26,-120.33C1172.32,-116.54 1188.47,-111.46 1202.32,-107.1"/>
<polygon fill="black" stroke="black" points="1203.33,-110.45 1211.82,-104.11 1201.23,-103.77 1203.33,-110.45"/>
</g>
<!-- node_11 -->
<g id="node9" class="node">
<title>node_11</title>
<path fill="lightblue" stroke="black" d="M683,-90C683,-90 465.25,-90 465.25,-90 459.25,-90 453.25,-84 453.25,-78 453.25,-78 453.25,-66 453.25,-66 453.25,-60 459.25,-54 465.25,-54 465.25,-54 683,-54 683,-54 689,-54 695,-60 695,-66 695,-66 695,-78 695,-78 695,-84 689,-90 683,-90"/>
<text text-anchor="middle" x="574.12" y="-66.58" font-family="Times New Roman,serif" font-size="14.00">Milling, impacts: c: 50 w: 1, dur: [30, 72]</text>
</g>
<!-- node_12 -->
<g id="node12" class="node">
<title>node_12</title>
<polygon fill="orange" stroke="black" points="766.5,-90 739.5,-72 766.5,-54 793.5,-72 766.5,-90"/>
<text text-anchor="middle" x="766.5" y="-66.58" font-family="Times New Roman,serif" font-size="14.00">X</text>
</g>
<!-- node_11&#45;&gt;node_12 -->
<g id="edge10" class="edge">
<title>node_11&#45;&gt;node_12</title>
<path fill="none" stroke="black" d="M695.42,-72C706.77,-72 717.6,-72 727.21,-72"/>
<polygon fill="black" stroke="black" points="727.17,-75.5 737.17,-72 727.17,-68.5 727.17,-75.5"/>
</g>
<!-- node_13 -->
<g id="node10" class="node">
<title>node_13</title>
<path fill="lightblue" stroke="black" d="M1064.5,-90C1064.5,-90 859.5,-90 859.5,-90 853.5,-90 847.5,-84 847.5,-78 847.5,-78 847.5,-66 847.5,-66 847.5,-60 853.5,-54 859.5,-54 859.5,-54 1064.5,-54 1064.5,-54 1070.5,-54 1076.5,-60 1076.5,-66 1076.5,-66 1076.5,-78 1076.5,-78 1076.5,-84 1070.5,-90 1064.5,-90"/>
<text text-anchor="middle" x="962" y="-66.58" font-family="Times New Roman,serif" font-size="14.00">FD, impacts: c: 30 w: 1, dur: [70, 100]</text>
</g>
<!-- node_15 -->
<g id="node13" class="node">
<title>node_15</title>
<polygon fill="orange" stroke="black" points="1141.25,-90 1114.25,-72 1141.25,-54 1168.25,-72 1141.25,-90"/>
<text text-anchor="middle" x="1141.25" y="-66.58" font-family="Times New Roman,serif" font-size="14.00">X</text>
</g>
<!-- node_13&#45;&gt;node_15 -->
<g id="edge7" class="edge">
<title>node_13&#45;&gt;node_15</title>
<path fill="none" stroke="black" d="M1076.76,-72C1085.8,-72 1094.47,-72 1102.33,-72"/>
<polygon fill="black" stroke="black" points="1102.07,-75.5 1112.07,-72 1102.07,-68.5 1102.07,-75.5"/>
</g>
<!-- node_14 -->
<g id="node11" class="node">
<title>node_14</title>
<path fill="lightblue" stroke="black" d="M1065.25,-36C1065.25,-36 858.75,-36 858.75,-36 852.75,-36 846.75,-30 846.75,-24 846.75,-24 846.75,-12 846.75,-12 846.75,-6 852.75,0 858.75,0 858.75,0 1065.25,0 1065.25,0 1071.25,0 1077.25,-6 1077.25,-12 1077.25,-12 1077.25,-24 1077.25,-24 1077.25,-30 1071.25,-36 1065.25,-36"/>
<text text-anchor="middle" x="962" y="-12.57" font-family="Times New Roman,serif" font-size="14.00">RD, impacts: c: 10 w: 1, dur: [46, 100]</text>
</g>
<!-- node_14&#45;&gt;node_15 -->
<g id="edge9" class="edge">
<title>node_14&#45;&gt;node_15</title>
<path fill="none" stroke="black" d="M1048.31,-36.44C1058.14,-39.07 1067.96,-41.94 1077.25,-45 1089.71,-49.11 1103.12,-54.69 1114.36,-59.7"/>
<polygon fill="black" stroke="black" points="1112.82,-62.85 1123.37,-63.83 1115.74,-56.49 1112.82,-62.85"/>
</g>
<!-- node_12&#45;&gt;node_13 -->
<g id="edge6" class="edge">
<title>node_12&#45;&gt;node_13</title>
<path fill="none" stroke="black" d="M794,-72C805.58,-72 820.07,-72 835.64,-72"/>
<polygon fill="black" stroke="black" points="835.64,-75.5 845.64,-72 835.64,-68.5 835.64,-75.5"/>
</g>
<!-- node_12&#45;&gt;node_14 -->
<g id="edge8" class="edge">
<title>node_12&#45;&gt;node_14</title>
<path fill="none" stroke="black" d="M784.66,-65.62C800.61,-59.81 825.1,-51.23 846.75,-45 853.5,-43.06 860.5,-41.15 867.56,-39.3"/>
<polygon fill="black" stroke="black" points="868.4,-42.7 877.22,-36.83 866.67,-35.92 868.4,-42.7"/>
</g>
<!-- node_15&#45;&gt;node_16 -->
<g id="edge14" class="edge">
<title>node_15&#45;&gt;node_16</title>
<path fill="none" stroke="black" d="M1160.69,-77.39C1172.62,-80.87 1188.42,-85.49 1202.04,-89.47"/>
<polygon fill="black" stroke="black" points="1200.8,-92.75 1211.38,-92.2 1202.76,-86.03 1200.8,-92.75"/>
</g>
<!-- node_3&#45;&gt;node_5 -->
<g id="edge11" class="edge">
<title>node_3&#45;&gt;node_5</title>
<path fill="none" stroke="black" d="M404.59,-101.21C413.34,-102.5 424.18,-104.09 436.13,-105.85"/>
<polygon fill="black" stroke="black" points="435.47,-109.29 445.88,-107.28 436.49,-102.37 435.47,-109.29"/>
</g>
<!-- node_3&#45;&gt;node_11 -->
<g id="edge13" class="edge">
<title>node_3&#45;&gt;node_11</title>
<path fill="none" stroke="black" d="M404.96,-94.97C414.94,-93.6 427.61,-91.87 441.48,-89.98"/>
<polygon fill="black" stroke="black" points="441.91,-93.45 451.35,-88.63 440.97,-86.52 441.91,-93.45"/>
</g>
<!-- node_17 -->
<g id="node18" class="node">
<title>node_17</title>
<polygon fill="orange" stroke="black" points="1323.25,-116 1296.25,-98 1323.25,-80 1350.25,-98 1323.25,-116"/>
<text text-anchor="middle" x="1323.25" y="-92.58" font-family="Times New Roman,serif" font-size="14.00">X</text>
</g>
<!-- node_16&#45;&gt;node_17 -->
<g id="edge20" class="edge">
<title>node_16&#45;&gt;node_17</title>
<path fill="none" stroke="black" d="M1259.95,-98C1267.61,-98 1276.11,-98 1284.3,-98"/>
<polygon fill="black" stroke="black" points="1284.05,-101.5 1294.05,-98 1284.05,-94.5 1284.05,-101.5"/>
</g>
<!-- node_18 -->
<g id="node16" class="node">
<title>node_18</title>
<path fill="lightblue" stroke="black" d="M1608.75,-144C1608.75,-144 1399.25,-144 1399.25,-144 1393.25,-144 1387.25,-138 1387.25,-132 1387.25,-132 1387.25,-120 1387.25,-120 1387.25,-114 1393.25,-108 1399.25,-108 1399.25,-108 1608.75,-108 1608.75,-108 1614.75,-108 1620.75,-114 1620.75,-120 1620.75,-120 1620.75,-132 1620.75,-132 1620.75,-138 1614.75,-144 1608.75,-144"/>
<text text-anchor="middle" x="1504" y="-120.58" font-family="Times New Roman,serif" font-size="14.00">HPHS, impacts: c: 40 w: 1, dur: [0, 61]</text>
</g>
<!-- node_20 -->
<g id="node19" class="node">
<title>node_20</title>
<polygon fill="orange" stroke="black" points="1684.75,-116 1657.75,-98 1684.75,-80 1711.75,-98 1684.75,-116"/>
<text text-anchor="middle" x="1684.75" y="-92.58" font-family="Times New Roman,serif" font-size="14.00">X</text>
</g>
<!-- node_18&#45;&gt;node_20 -->
<g id="edge17" class="edge">
<title>node_18&#45;&gt;node_20</title>
<path fill="none" stroke="black" d="M1621.23,-107.79C1631.87,-106.13 1641.94,-104.55 1650.78,-103.16"/>
<polygon fill="black" stroke="black" points="1651.15,-106.65 1660.49,-101.64 1650.07,-99.73 1651.15,-106.65"/>
</g>
<!-- node_19 -->
<g id="node17" class="node">
<title>node_19</title>
<path fill="lightblue" stroke="black" d="M1607.25,-90C1607.25,-90 1400.75,-90 1400.75,-90 1394.75,-90 1388.75,-84 1388.75,-78 1388.75,-78 1388.75,-66 1388.75,-66 1388.75,-60 1394.75,-54 1400.75,-54 1400.75,-54 1607.25,-54 1607.25,-54 1613.25,-54 1619.25,-60 1619.25,-66 1619.25,-66 1619.25,-78 1619.25,-78 1619.25,-84 1613.25,-90 1607.25,-90"/>
<text text-anchor="middle" x="1504" y="-66.58" font-family="Times New Roman,serif" font-size="14.00">LPLS, impacts: c: 20 w: 3, dur: [0, 53]</text>
</g>
<!-- node_19&#45;&gt;node_20 -->
<g id="edge19" class="edge">
<title>node_19&#45;&gt;node_20</title>
<path fill="none" stroke="black" d="M1619.72,-88.69C1630.78,-90.3 1641.28,-91.82 1650.46,-93.16"/>
<polygon fill="black" stroke="black" points="1649.79,-96.6 1660.19,-94.57 1650.8,-89.67 1649.79,-96.6"/>
</g>
<!-- node_17&#45;&gt;node_18 -->
<g id="edge16" class="edge">
<title>node_17&#45;&gt;node_18</title>
<path fill="none" stroke="black" d="M1345.81,-101.38C1354.19,-102.69 1364.49,-104.3 1375.77,-106.07"/>
<polygon fill="black" stroke="black" points="1374.95,-109.48 1385.37,-107.57 1376.04,-102.57 1374.95,-109.48"/>
</g>
<!-- node_17&#45;&gt;node_19 -->
<g id="edge18" class="edge">
<title>node_17&#45;&gt;node_19</title>
<path fill="none" stroke="black" d="M1346.17,-94.81C1354.88,-93.55 1365.63,-91.98 1377.38,-90.27"/>
<polygon fill="black" stroke="black" points="1377.55,-93.78 1386.94,-88.88 1376.54,-86.86 1377.55,-93.78"/>
</g>
<!-- node_20&#45;&gt;end -->
<g id="edge22" class="edge">
<title>node_20&#45;&gt;end</title>
<path fill="none" stroke="black" d="M1712.33,-98C1720.14,-98 1728.79,-98 1736.94,-98"/>
<polygon fill="black" stroke="black" points="1736.88,-101.5 1746.88,-98 1736.88,-94.5 1736.88,-101.5"/>
</g>
</g>
</svg>
