<?xml version="1.0" encoding="UTF-8" standalone="no"?>
<!DOCTYPE svg PUBLIC "-//W3C//DTD SVG 1.1//EN"
 "http://www.w3.org/Graphics/SVG/1.1/DTD/svg11.dtd">
<!-- Generated by graphviz version 9.0.0 (20230911.1827)
 -->
<!-- Title: my_graph Pages: 1 -->
<svg width="1582pt" height="177pt"
 viewBox="0.00 0.00 1582.25 177.00" xmlns="http://www.w3.org/2000/svg" xmlns:xlink="http://www.w3.org/1999/xlink">
<g id="graph0" class="graph" transform="scale(1 1) rotate(0) translate(4 173)">
<title>my_graph</title>
<polygon fill="white" stroke="none" points="-4,4 -4,-173 1578.25,-173 1578.25,4 -4,4"/>
<!-- start -->
<g id="node1" class="node">
<title>start</title>
<ellipse fill="#9aff9a" stroke="black" cx="18" cy="-115" rx="18" ry="18"/>
</g>
<!-- node_0 -->
<g id="node12" class="node">
<title>node_0</title>
<polygon fill="yellowgreen" stroke="black" points="100,-133 73,-115 100,-97 127,-115 100,-133"/>
<text text-anchor="middle" x="100" y="-109.58" font-family="Times New Roman,serif" font-size="14.00">+</text>
</g>
<!-- start&#45;&gt;node_0 -->
<g id="edge14" class="edge">
<title>start&#45;&gt;node_0</title>
<path fill="none" stroke="black" d="M36.36,-115C43.56,-115 52.23,-115 60.78,-115"/>
<polygon fill="black" stroke="black" points="60.72,-118.5 70.72,-115 60.72,-111.5 60.72,-118.5"/>
</g>
<!-- end -->
<g id="node2" class="node">
<title>end</title>
<ellipse fill="orangered" stroke="black" cx="1552.25" cy="-129" rx="18" ry="18"/>
<ellipse fill="none" stroke="black" cx="1552.25" cy="-129" rx="22" ry="22"/>
</g>
<!-- node_2 -->
<g id="node3" class="node">
<title>node_2</title>
<path fill="lightblue" stroke="black" d="M451.5,-162C451.5,-162 176,-162 176,-162 170,-162 164,-156 164,-150 164,-150 164,-138 164,-138 164,-132 170,-126 176,-126 176,-126 451.5,-126 451.5,-126 457.5,-126 463.5,-132 463.5,-138 463.5,-138 463.5,-150 463.5,-150 463.5,-156 457.5,-162 451.5,-162"/>
<text text-anchor="middle" x="313.75" y="-138.57" font-family="Times New Roman,serif" font-size="14.00">SimpleTask1, impacts: cost: 0, hours: 0, dur: None</text>
</g>
<!-- node_3 -->
<g id="node4" class="node">
<title>node_3</title>
<path fill="lightblue" stroke="black" d="M821.75,-169C821.75,-169 584.5,-169 584.5,-169 578.5,-169 572.5,-163 572.5,-157 572.5,-157 572.5,-145 572.5,-145 572.5,-139 578.5,-133 584.5,-133 584.5,-133 821.75,-133 821.75,-133 827.75,-133 833.75,-139 833.75,-145 833.75,-145 833.75,-157 833.75,-157 833.75,-163 827.75,-169 821.75,-169"/>
<text text-anchor="middle" x="703.12" y="-145.57" font-family="Times New Roman,serif" font-size="14.00">Task1, impacts: cost: 0, hours: 0, dur: None</text>
</g>
<!-- node_2&#45;&gt;node_3 -->
<g id="edge1" class="edge">
<title>node_2&#45;&gt;node_3</title>
<path fill="none" stroke="black" d="M463.97,-146.7C495.76,-147.27 529.25,-147.88 560.74,-148.45"/>
<polygon fill="black" stroke="black" points="560.67,-151.94 570.73,-148.63 560.79,-144.95 560.67,-151.94"/>
</g>
<!-- node_12 -->
<g id="node13" class="node">
<title>node_12</title>
<polygon fill="yellowgreen" stroke="black" points="1466.25,-147 1439.25,-129 1466.25,-111 1493.25,-129 1466.25,-147"/>
<text text-anchor="middle" x="1466.25" y="-123.58" font-family="Times New Roman,serif" font-size="14.00">+</text>
</g>
<!-- node_3&#45;&gt;node_12 -->
<g id="edge11" class="edge">
<title>node_3&#45;&gt;node_12</title>
<path fill="none" stroke="black" d="M834.21,-151.77C866,-151.9 899.91,-152 931.38,-152 931.38,-152 931.38,-152 1376.25,-152 1397.59,-152 1420.92,-145.73 1438.33,-139.73"/>
<polygon fill="black" stroke="black" points="1439.23,-143.13 1447.42,-136.42 1436.83,-136.55 1439.23,-143.13"/>
</g>
<!-- node_5 -->
<g id="node5" class="node">
<title>node_5</title>
<path fill="lightblue" stroke="black" d="M429,-107C429,-107 198.5,-107 198.5,-107 192.5,-107 186.5,-101 186.5,-95 186.5,-95 186.5,-83 186.5,-83 186.5,-77 192.5,-71 198.5,-71 198.5,-71 429,-71 429,-71 435,-71 441,-77 441,-83 441,-83 441,-95 441,-95 441,-101 435,-107 429,-107"/>
<text text-anchor="middle" x="313.75" y="-83.58" font-family="Times New Roman,serif" font-size="14.00">Task, impacts: cost: 0, hours: 0, dur: None</text>
</g>
<!-- node_6 -->
<g id="node10" class="node">
<title>node_6</title>
<polygon fill="yellow" stroke="black" points="527.5,-73 500.5,-55 527.5,-37 554.5,-55 527.5,-73"/>
<text text-anchor="middle" x="527.5" y="-49.58" font-family="Times New Roman,serif" font-size="14.00">X</text>
</g>
<!-- node_5&#45;&gt;node_6 -->
<g id="edge9" class="edge">
<title>node_5&#45;&gt;node_6</title>
<path fill="none" stroke="black" d="M429.92,-70.51C453.41,-66.74 476.28,-63.06 493.86,-60.24"/>
<polygon fill="black" stroke="black" points="494.32,-63.71 503.64,-58.67 493.21,-56.8 494.32,-63.71"/>
</g>
<!-- node_8 -->
<g id="node6" class="node">
<title>node_8</title>
<path fill="lightblue" stroke="black" d="M1208.25,-124C1208.25,-124 971,-124 971,-124 965,-124 959,-118 959,-112 959,-112 959,-100 959,-100 959,-94 965,-88 971,-88 971,-88 1208.25,-88 1208.25,-88 1214.25,-88 1220.25,-94 1220.25,-100 1220.25,-100 1220.25,-112 1220.25,-112 1220.25,-118 1214.25,-124 1208.25,-124"/>
<text text-anchor="middle" x="1089.62" y="-100.58" font-family="Times New Roman,serif" font-size="14.00">Task3, impacts: cost: 0, hours: 0, dur: None</text>
</g>
<!-- node_10 -->
<g id="node9" class="node">
<title>node_10</title>
<polygon fill="orange" stroke="black" points="1284.25,-97 1257.25,-79 1284.25,-61 1311.25,-79 1284.25,-97"/>
<text text-anchor="middle" x="1284.25" y="-73.58" font-family="Times New Roman,serif" font-size="14.00">N</text>
</g>
<!-- node_8&#45;&gt;node_10 -->
<g id="edge3" class="edge">
<title>node_8&#45;&gt;node_10</title>
<path fill="none" stroke="black" d="M1220.71,-87.77C1231.18,-86.3 1241.04,-84.92 1249.71,-83.7"/>
<polygon fill="black" stroke="black" points="1250.18,-87.17 1259.59,-82.32 1249.2,-80.24 1250.18,-87.17"/>
</g>
<!-- node_9 -->
<g id="node7" class="node">
<title>node_9</title>
<path fill="lightblue" stroke="black" d="M1208.25,-70C1208.25,-70 971,-70 971,-70 965,-70 959,-64 959,-58 959,-58 959,-46 959,-46 959,-40 965,-34 971,-34 971,-34 1208.25,-34 1208.25,-34 1214.25,-34 1220.25,-40 1220.25,-46 1220.25,-46 1220.25,-58 1220.25,-58 1220.25,-64 1214.25,-70 1208.25,-70"/>
<text text-anchor="middle" x="1089.62" y="-46.58" font-family="Times New Roman,serif" font-size="14.00">Task9, impacts: cost: 0, hours: 0, dur: None</text>
</g>
<!-- node_9&#45;&gt;node_10 -->
<g id="edge5" class="edge">
<title>node_9&#45;&gt;node_10</title>
<path fill="none" stroke="black" d="M1220.71,-70.23C1231.18,-71.7 1241.04,-73.08 1249.71,-74.3"/>
<polygon fill="black" stroke="black" points="1249.2,-77.76 1259.59,-75.68 1250.18,-70.83 1249.2,-77.76"/>
</g>
<!-- node_7 -->
<g id="node8" class="node">
<title>node_7</title>
<polygon fill="orange" stroke="black" points="878.75,-73 851.75,-55 878.75,-37 905.75,-55 878.75,-73"/>
<text text-anchor="middle" x="878.75" y="-49.58" font-family="Times New Roman,serif" font-size="14.00">N</text>
</g>
<!-- node_7&#45;&gt;node_8 -->
<g id="edge2" class="edge">
<title>node_7&#45;&gt;node_8</title>
<path fill="none" stroke="black" d="M894.47,-62.77C902.85,-66.92 913.67,-71.81 923.75,-75 935.46,-78.7 947.78,-82.02 960.19,-84.99"/>
<polygon fill="black" stroke="black" points="959.11,-88.33 969.64,-87.17 960.68,-81.51 959.11,-88.33"/>
<text text-anchor="middle" x="932.38" y="-81.45" font-family="Times New Roman,serif" font-size="14.00">0.5</text>
</g>
<!-- node_7&#45;&gt;node_9 -->
<g id="edge4" class="edge">
<title>node_7&#45;&gt;node_9</title>
<path fill="none" stroke="black" d="M905.78,-54.63C917.33,-54.46 931.9,-54.25 947.75,-54.02"/>
<polygon fill="black" stroke="black" points="947.44,-57.53 957.39,-53.88 947.34,-50.53 947.44,-57.53"/>
<text text-anchor="middle" x="932.38" y="-57.45" font-family="Times New Roman,serif" font-size="14.00">0.5</text>
</g>
<!-- node_11 -->
<g id="node11" class="node">
<title>node_11</title>
<polygon fill="yellow" stroke="black" points="1375.25,-97 1348.25,-79 1375.25,-61 1402.25,-79 1375.25,-97"/>
<text text-anchor="middle" x="1375.25" y="-73.58" font-family="Times New Roman,serif" font-size="14.00">X</text>
</g>
<!-- node_10&#45;&gt;node_11 -->
<g id="edge7" class="edge">
<title>node_10&#45;&gt;node_11</title>
<path fill="none" stroke="black" d="M1311.95,-79C1319.61,-79 1328.11,-79 1336.3,-79"/>
<polygon fill="black" stroke="black" points="1336.05,-82.5 1346.05,-79 1336.05,-75.5 1336.05,-82.5"/>
</g>
<!-- node_6&#45;&gt;node_7 -->
<g id="edge6" class="edge">
<title>node_6&#45;&gt;node_7</title>
<path fill="none" stroke="black" d="M555.33,-55C616.93,-55 768.68,-55 839.81,-55"/>
<polygon fill="black" stroke="black" points="839.8,-58.5 849.8,-55 839.8,-51.5 839.8,-58.5"/>
</g>
<!-- node_11&#45;&gt;node_6 -->
<g id="edge8" class="edge">
<title>node_11&#45;&gt;node_6</title>
<path fill="none" stroke="black" d="M1367.38,-65.95C1354.52,-43.52 1324.5,0 1285.25,0 877.75,0 877.75,0 877.75,0 758.06,0 618.07,-31.91 558.15,-47.12"/>
<polygon fill="black" stroke="black" points="557.54,-43.66 548.73,-49.55 559.29,-50.44 557.54,-43.66"/>
<text text-anchor="middle" x="1089.62" y="-2.45" font-family="Times New Roman,serif" font-size="14.00">0.5</text>
</g>
<!-- node_11&#45;&gt;node_12 -->
<g id="edge13" class="edge">
<title>node_11&#45;&gt;node_12</title>
<path fill="none" stroke="black" d="M1390.55,-87.03C1404.09,-94.64 1424.7,-106.22 1440.85,-115.29"/>
<polygon fill="black" stroke="black" points="1438.94,-118.23 1449.37,-120.08 1442.37,-112.13 1438.94,-118.23"/>
</g>
<!-- node_0&#45;&gt;node_2 -->
<g id="edge10" class="edge">
<title>node_0&#45;&gt;node_2</title>
<path fill="none" stroke="black" d="M123.26,-118.05C134.76,-119.62 149.87,-121.69 166.55,-123.98"/>
<polygon fill="black" stroke="black" points="165.83,-127.41 176.21,-125.3 166.78,-120.48 165.83,-127.41"/>
</g>
<!-- node_0&#45;&gt;node_5 -->
<g id="edge12" class="edge">
<title>node_0&#45;&gt;node_5</title>
<path fill="none" stroke="black" d="M123.66,-112.22C137.07,-110.57 155.3,-108.33 175.17,-105.89"/>
<polygon fill="black" stroke="black" points="175.35,-109.4 184.85,-104.7 174.5,-102.45 175.35,-109.4"/>
</g>
<!-- node_12&#45;&gt;end -->
<g id="edge15" class="edge">
<title>node_12&#45;&gt;end</title>
<path fill="none" stroke="black" d="M1493.83,-129C1501.64,-129 1510.29,-129 1518.44,-129"/>
<polygon fill="black" stroke="black" points="1518.38,-132.5 1528.38,-129 1518.38,-125.5 1518.38,-132.5"/>
</g>
</g>
</svg>
