<?xml version="1.0" encoding="UTF-8" standalone="no"?>
<!DOCTYPE svg PUBLIC "-//W3C//DTD SVG 1.1//EN"
 "http://www.w3.org/Graphics/SVG/1.1/DTD/svg11.dtd">
<!-- Generated by graphviz version 9.0.0 (20230911.1827)
 -->
<!-- Title: my_graph Pages: 1 -->
<svg width="1441pt" height="144pt"
 viewBox="0.00 0.00 1440.75 144.00" xmlns="http://www.w3.org/2000/svg" xmlns:xlink="http://www.w3.org/1999/xlink">
<g id="graph0" class="graph" transform="scale(1 1) rotate(0) translate(4 140)">
<title>my_graph</title>
<polygon fill="white" stroke="none" points="-4,4 -4,-140 1436.75,-140 1436.75,4 -4,4"/>
<!-- start -->
<g id="node1" class="node">
<title>start</title>
<ellipse fill="#9aff9a" stroke="black" cx="18" cy="-37" rx="18" ry="18"/>
</g>
<!-- node_0 -->
<g id="node10" class="node">
<title>node_0</title>
<polygon fill="orange" stroke="black" points="100,-55 73,-37 100,-19 127,-37 100,-55"/>
<text text-anchor="middle" x="100" y="-31.57" font-family="Times New Roman,serif" font-size="14.00">N</text>
</g>
<!-- start&#45;&gt;node_0 -->
<g id="edge11" class="edge">
<title>start&#45;&gt;node_0</title>
<path fill="none" stroke="black" d="M36.36,-37C43.56,-37 52.23,-37 60.78,-37"/>
<polygon fill="black" stroke="black" points="60.72,-40.5 70.72,-37 60.72,-33.5 60.72,-40.5"/>
</g>
<!-- end -->
<g id="node2" class="node">
<title>end</title>
<ellipse fill="orangered" stroke="black" cx="1410.75" cy="-30" rx="18" ry="18"/>
<ellipse fill="none" stroke="black" cx="1410.75" cy="-30" rx="22" ry="22"/>
</g>
<!-- node_3 -->
<g id="node3" class="node">
<title>node_3</title>
<path fill="lightblue" stroke="black" d="M846,-136C846,-136 557,-136 557,-136 551,-136 545,-130 545,-124 545,-124 545,-112 545,-112 545,-106 551,-100 557,-100 557,-100 846,-100 846,-100 852,-100 858,-106 858,-112 858,-112 858,-124 858,-124 858,-130 852,-136 846,-136"/>
<text text-anchor="middle" x="701.5" y="-112.58" font-family="Times New Roman,serif" font-size="14.00">SimpleTask1, impacts: cost: 0, hours: 0, dur: [0, 100]</text>
</g>
<!-- node_4 -->
<g id="node4" class="node">
<title>node_4</title>
<path fill="lightblue" stroke="black" d="M1157.75,-136C1157.75,-136 907,-136 907,-136 901,-136 895,-130 895,-124 895,-124 895,-112 895,-112 895,-106 901,-100 907,-100 907,-100 1157.75,-100 1157.75,-100 1163.75,-100 1169.75,-106 1169.75,-112 1169.75,-112 1169.75,-124 1169.75,-124 1169.75,-130 1163.75,-136 1157.75,-136"/>
<text text-anchor="middle" x="1032.38" y="-112.58" font-family="Times New Roman,serif" font-size="14.00">Task1, impacts: cost: 0, hours: 0, dur: [0, 100]</text>
</g>
<!-- node_3&#45;&gt;node_4 -->
<g id="edge1" class="edge">
<title>node_3&#45;&gt;node_4</title>
<path fill="none" stroke="black" d="M858.27,-118C866.6,-118 874.96,-118 883.27,-118"/>
<polygon fill="black" stroke="black" points="883.04,-121.5 893.04,-118 883.04,-114.5 883.04,-121.5"/>
</g>
<!-- node_8 -->
<g id="node8" class="node">
<title>node_8</title>
<polygon fill="yellowgreen" stroke="black" points="1233.75,-82 1206.75,-64 1233.75,-46 1260.75,-64 1233.75,-82"/>
<text text-anchor="middle" x="1233.75" y="-58.58" font-family="Times New Roman,serif" font-size="14.00">+</text>
</g>
<!-- node_4&#45;&gt;node_8 -->
<g id="edge4" class="edge">
<title>node_4&#45;&gt;node_8</title>
<path fill="none" stroke="black" d="M1138.18,-99.58C1148.92,-97 1159.61,-94.14 1169.75,-91 1182.37,-87.09 1195.89,-81.5 1207.16,-76.41"/>
<polygon fill="black" stroke="black" points="1208.59,-79.61 1216.18,-72.22 1205.64,-73.26 1208.59,-79.61"/>
</g>
<!-- node_6 -->
<g id="node5" class="node">
<title>node_6</title>
<path fill="lightblue" stroke="black" d="M823.5,-82C823.5,-82 579.5,-82 579.5,-82 573.5,-82 567.5,-76 567.5,-70 567.5,-70 567.5,-58 567.5,-58 567.5,-52 573.5,-46 579.5,-46 579.5,-46 823.5,-46 823.5,-46 829.5,-46 835.5,-52 835.5,-58 835.5,-58 835.5,-70 835.5,-70 835.5,-76 829.5,-82 823.5,-82"/>
<text text-anchor="middle" x="701.5" y="-58.58" font-family="Times New Roman,serif" font-size="14.00">Task, impacts: cost: 0, hours: 0, dur: [0, 100]</text>
</g>
<!-- node_7 -->
<g id="node6" class="node">
<title>node_7</title>
<path fill="lightblue" stroke="black" d="M1157.75,-82C1157.75,-82 907,-82 907,-82 901,-82 895,-76 895,-70 895,-70 895,-58 895,-58 895,-52 901,-46 907,-46 907,-46 1157.75,-46 1157.75,-46 1163.75,-46 1169.75,-52 1169.75,-58 1169.75,-58 1169.75,-70 1169.75,-70 1169.75,-76 1163.75,-82 1157.75,-82"/>
<text text-anchor="middle" x="1032.38" y="-58.58" font-family="Times New Roman,serif" font-size="14.00">Task3, impacts: cost: 0, hours: 0, dur: [0, 100]</text>
</g>
<!-- node_6&#45;&gt;node_7 -->
<g id="edge2" class="edge">
<title>node_6&#45;&gt;node_7</title>
<path fill="none" stroke="black" d="M835.79,-64C851.41,-64 867.42,-64 883.22,-64"/>
<polygon fill="black" stroke="black" points="883.17,-67.5 893.17,-64 883.17,-60.5 883.17,-67.5"/>
</g>
<!-- node_7&#45;&gt;node_8 -->
<g id="edge6" class="edge">
<title>node_7&#45;&gt;node_8</title>
<path fill="none" stroke="black" d="M1170.21,-64C1178.85,-64 1187.05,-64 1194.5,-64"/>
<polygon fill="black" stroke="black" points="1194.4,-67.5 1204.4,-64 1194.4,-60.5 1194.4,-67.5"/>
</g>
<!-- node_1 -->
<g id="node7" class="node">
<title>node_1</title>
<polygon fill="yellowgreen" stroke="black" points="207.25,-82 180.25,-64 207.25,-46 234.25,-64 207.25,-82"/>
<text text-anchor="middle" x="207.25" y="-58.58" font-family="Times New Roman,serif" font-size="14.00">+</text>
</g>
<!-- node_1&#45;&gt;node_3 -->
<g id="edge3" class="edge">
<title>node_1&#45;&gt;node_3</title>
<path fill="none" stroke="black" d="M225.16,-70.34C233.24,-73.12 243.13,-76.17 252.25,-78 344.25,-96.51 448.59,-106.45 533.44,-111.8"/>
<polygon fill="black" stroke="black" points="533.04,-115.28 543.24,-112.4 533.47,-108.29 533.04,-115.28"/>
</g>
<!-- node_1&#45;&gt;node_6 -->
<g id="edge5" class="edge">
<title>node_1&#45;&gt;node_6</title>
<path fill="none" stroke="black" d="M235.07,-64C294.87,-64 442.79,-64 555.96,-64"/>
<polygon fill="black" stroke="black" points="555.63,-67.5 565.63,-64 555.63,-60.5 555.63,-67.5"/>
</g>
<!-- node_10 -->
<g id="node11" class="node">
<title>node_10</title>
<polygon fill="orange" stroke="black" points="1324.75,-48 1297.75,-30 1324.75,-12 1351.75,-30 1324.75,-48"/>
<text text-anchor="middle" x="1324.75" y="-24.57" font-family="Times New Roman,serif" font-size="14.00">N</text>
</g>
<!-- node_8&#45;&gt;node_10 -->
<g id="edge8" class="edge">
<title>node_8&#45;&gt;node_10</title>
<path fill="none" stroke="black" d="M1251.49,-57.6C1264.09,-52.79 1281.63,-46.09 1296.28,-40.5"/>
<polygon fill="black" stroke="black" points="1297.28,-43.86 1305.37,-37.02 1294.78,-37.32 1297.28,-43.86"/>
</g>
<!-- node_9 -->
<g id="node9" class="node">
<title>node_9</title>
<path fill="lightblue" stroke="black" d="M515,-36C515,-36 264.25,-36 264.25,-36 258.25,-36 252.25,-30 252.25,-24 252.25,-24 252.25,-12 252.25,-12 252.25,-6 258.25,0 264.25,0 264.25,0 515,0 515,0 521,0 527,-6 527,-12 527,-12 527,-24 527,-24 527,-30 521,-36 515,-36"/>
<text text-anchor="middle" x="389.62" y="-12.57" font-family="Times New Roman,serif" font-size="14.00">Task9, impacts: cost: 0, hours: 0, dur: [0, 100]</text>
</g>
<!-- node_9&#45;&gt;node_10 -->
<g id="edge10" class="edge">
<title>node_9&#45;&gt;node_10</title>
<path fill="none" stroke="black" d="M527.4,-18C624.64,-18 758.34,-18 876,-18 876,-18 876,-18 1234.75,-18 1254.01,-18 1275.4,-20.79 1292.38,-23.68"/>
<polygon fill="black" stroke="black" points="1291.4,-27.06 1301.86,-25.4 1292.65,-20.18 1291.4,-27.06"/>
</g>
<!-- node_0&#45;&gt;node_1 -->
<g id="edge7" class="edge">
<title>node_0&#45;&gt;node_1</title>
<path fill="none" stroke="black" d="M120.3,-41.95C135.88,-45.95 158.08,-51.64 176.01,-56.24"/>
<polygon fill="black" stroke="black" points="175.05,-59.61 185.6,-58.7 176.79,-52.83 175.05,-59.61"/>
<text text-anchor="middle" x="153.62" y="-55.45" font-family="Times New Roman,serif" font-size="14.00">0.5</text>
</g>
<!-- node_0&#45;&gt;node_9 -->
<g id="edge9" class="edge">
<title>node_0&#45;&gt;node_9</title>
<path fill="none" stroke="black" d="M121.52,-32.82C128.89,-31.47 137.29,-30.1 145,-29.25 175.87,-25.83 209.05,-23.45 240.68,-21.79"/>
<polygon fill="black" stroke="black" points="240.48,-25.3 250.29,-21.31 240.13,-18.31 240.48,-25.3"/>
<text text-anchor="middle" x="153.62" y="-32.45" font-family="Times New Roman,serif" font-size="14.00">0.5</text>
</g>
<!-- node_10&#45;&gt;end -->
<g id="edge12" class="edge">
<title>node_10&#45;&gt;end</title>
<path fill="none" stroke="black" d="M1352.33,-30C1360.14,-30 1368.79,-30 1376.94,-30"/>
<polygon fill="black" stroke="black" points="1376.88,-33.5 1386.88,-30 1376.88,-26.5 1376.88,-33.5"/>
</g>
</g>
</svg>
