<?xml version="1.0" encoding="UTF-8" standalone="no"?>
<!DOCTYPE svg PUBLIC "-//W3C//DTD SVG 1.1//EN"
 "http://www.w3.org/Graphics/SVG/1.1/DTD/svg11.dtd">
<!-- Generated by graphviz version 9.0.0 (20230911.1827)
 -->
<!-- Title: my_graph Pages: 1 -->
<svg width="2560pt" height="242pt"
 viewBox="0.00 0.00 2560.00 242.00" xmlns="http://www.w3.org/2000/svg" xmlns:xlink="http://www.w3.org/1999/xlink">
<g id="graph0" class="graph" transform="scale(1 1) rotate(0) translate(4 238)">
<title>my_graph</title>
<polygon fill="white" stroke="none" points="-4,4 -4,-238 2556,-238 2556,4 -4,4"/>
<!-- start -->
<g id="node1" class="node">
<title>start</title>
<ellipse fill="#9aff9a" stroke="black" cx="18" cy="-44" rx="18" ry="18"/>
</g>
<!-- node_2 -->
<g id="node14" class="node">
<title>node_2</title>
<polygon fill="yellowgreen" stroke="black" points="100,-62 73,-44 100,-26 127,-44 100,-62"/>
<text text-anchor="middle" x="100" y="-38.58" font-family="Times New Roman,serif" font-size="14.00">+</text>
</g>
<!-- start&#45;&gt;node_2 -->
<g id="edge27" class="edge">
<title>start&#45;&gt;node_2</title>
<path fill="none" stroke="black" d="M36.36,-44C43.56,-44 52.23,-44 60.78,-44"/>
<polygon fill="black" stroke="black" points="60.72,-47.5 70.72,-44 60.72,-40.5 60.72,-47.5"/>
</g>
<!-- end -->
<g id="node2" class="node">
<title>end</title>
<ellipse fill="orangered" stroke="black" cx="2530" cy="-44" rx="18" ry="18"/>
<ellipse fill="none" stroke="black" cx="2530" cy="-44" rx="22" ry="22"/>
</g>
<!-- node_6 -->
<g id="node3" class="node">
<title>node_6</title>
<path fill="lightblue" stroke="black" d="M1233,-234C1233,-234 1054.25,-234 1054.25,-234 1048.25,-234 1042.25,-228 1042.25,-222 1042.25,-222 1042.25,-210 1042.25,-210 1042.25,-204 1048.25,-198 1054.25,-198 1054.25,-198 1233,-198 1233,-198 1239,-198 1245,-204 1245,-210 1245,-210 1245,-222 1245,-222 1245,-228 1239,-234 1233,-234"/>
<text text-anchor="middle" x="1143.62" y="-210.57" font-family="Times New Roman,serif" font-size="14.00">S1, impacts: cost: 0, dur: [0, 100]</text>
</g>
<!-- node_8 -->
<g id="node6" class="node">
<title>node_8</title>
<polygon fill="yellowgreen" stroke="black" points="1309,-180 1282,-162 1309,-144 1336,-162 1309,-180"/>
<text text-anchor="middle" x="1309" y="-156.57" font-family="Times New Roman,serif" font-size="14.00">+</text>
</g>
<!-- node_6&#45;&gt;node_8 -->
<g id="edge2" class="edge">
<title>node_6&#45;&gt;node_8</title>
<path fill="none" stroke="black" d="M1218.18,-197.51C1227.27,-194.84 1236.39,-191.99 1245,-189 1257.4,-184.7 1270.8,-179.1 1282.04,-174.11"/>
<polygon fill="black" stroke="black" points="1283.4,-177.34 1291.07,-170.02 1280.52,-170.96 1283.4,-177.34"/>
</g>
<!-- node_7 -->
<g id="node4" class="node">
<title>node_7</title>
<path fill="lightblue" stroke="black" d="M1233,-180C1233,-180 1054.25,-180 1054.25,-180 1048.25,-180 1042.25,-174 1042.25,-168 1042.25,-168 1042.25,-156 1042.25,-156 1042.25,-150 1048.25,-144 1054.25,-144 1054.25,-144 1233,-144 1233,-144 1239,-144 1245,-150 1245,-156 1245,-156 1245,-168 1245,-168 1245,-174 1239,-180 1233,-180"/>
<text text-anchor="middle" x="1143.62" y="-156.57" font-family="Times New Roman,serif" font-size="14.00">S2, impacts: cost: 0, dur: [0, 100]</text>
</g>
<!-- node_7&#45;&gt;node_8 -->
<g id="edge4" class="edge">
<title>node_7&#45;&gt;node_8</title>
<path fill="none" stroke="black" d="M1245.3,-162C1253.92,-162 1262.24,-162 1269.85,-162"/>
<polygon fill="black" stroke="black" points="1269.65,-165.5 1279.65,-162 1269.65,-158.5 1269.65,-165.5"/>
</g>
<!-- node_5 -->
<g id="node5" class="node">
<title>node_5</title>
<polygon fill="yellowgreen" stroke="black" points="776.5,-180 749.5,-162 776.5,-144 803.5,-162 776.5,-180"/>
<text text-anchor="middle" x="776.5" y="-156.57" font-family="Times New Roman,serif" font-size="14.00">+</text>
</g>
<!-- node_5&#45;&gt;node_6 -->
<g id="edge1" class="edge">
<title>node_5&#45;&gt;node_6</title>
<path fill="none" stroke="black" d="M794.86,-168.34C802.87,-171.05 812.57,-174.04 821.5,-176 890.21,-191.08 968.52,-200.97 1030.61,-207.15"/>
<polygon fill="black" stroke="black" points="1030.21,-210.63 1040.51,-208.11 1030.89,-203.66 1030.21,-210.63"/>
</g>
<!-- node_5&#45;&gt;node_7 -->
<g id="edge3" class="edge">
<title>node_5&#45;&gt;node_7</title>
<path fill="none" stroke="black" d="M804.35,-162C851.54,-162 951.85,-162 1031.05,-162"/>
<polygon fill="black" stroke="black" points="1030.56,-165.5 1040.56,-162 1030.56,-158.5 1030.56,-165.5"/>
</g>
<!-- node_10 -->
<g id="node9" class="node">
<title>node_10</title>
<polygon fill="yellowgreen" stroke="black" points="1400,-138 1373,-120 1400,-102 1427,-120 1400,-138"/>
<text text-anchor="middle" x="1400" y="-114.58" font-family="Times New Roman,serif" font-size="14.00">+</text>
</g>
<!-- node_8&#45;&gt;node_10 -->
<g id="edge6" class="edge">
<title>node_8&#45;&gt;node_10</title>
<path fill="none" stroke="black" d="M1325.5,-154.68C1338.69,-148.46 1357.91,-139.39 1373.38,-132.09"/>
<polygon fill="black" stroke="black" points="1374.46,-135.45 1382.01,-128.02 1371.47,-129.12 1374.46,-135.45"/>
</g>
<!-- node_9 -->
<g id="node7" class="node">
<title>node_9</title>
<path fill="lightblue" stroke="black" d="M1012.25,-134C1012.25,-134 833.5,-134 833.5,-134 827.5,-134 821.5,-128 821.5,-122 821.5,-122 821.5,-110 821.5,-110 821.5,-104 827.5,-98 833.5,-98 833.5,-98 1012.25,-98 1012.25,-98 1018.25,-98 1024.25,-104 1024.25,-110 1024.25,-110 1024.25,-122 1024.25,-122 1024.25,-128 1018.25,-134 1012.25,-134"/>
<text text-anchor="middle" x="922.88" y="-110.58" font-family="Times New Roman,serif" font-size="14.00">S3, impacts: cost: 0, dur: [0, 100]</text>
</g>
<!-- node_9&#45;&gt;node_10 -->
<g id="edge8" class="edge">
<title>node_9&#45;&gt;node_10</title>
<path fill="none" stroke="black" d="M1024.64,-116.85C1129.92,-117.73 1289.57,-119.08 1361.52,-119.68"/>
<polygon fill="black" stroke="black" points="1361.15,-123.18 1371.18,-119.77 1361.21,-116.18 1361.15,-123.18"/>
</g>
<!-- node_4 -->
<g id="node8" class="node">
<title>node_4</title>
<polygon fill="yellowgreen" stroke="black" points="483.75,-138 456.75,-120 483.75,-102 510.75,-120 483.75,-138"/>
<text text-anchor="middle" x="483.75" y="-114.58" font-family="Times New Roman,serif" font-size="14.00">+</text>
</g>
<!-- node_4&#45;&gt;node_5 -->
<g id="edge5" class="edge">
<title>node_4&#45;&gt;node_5</title>
<path fill="none" stroke="black" d="M503.95,-124.78C511.63,-126.58 520.57,-128.54 528.75,-130 604.03,-143.4 693.17,-153.57 741.01,-158.57"/>
<polygon fill="black" stroke="black" points="740.44,-162.03 750.75,-159.57 741.16,-155.06 740.44,-162.03"/>
</g>
<!-- node_4&#45;&gt;node_9 -->
<g id="edge7" class="edge">
<title>node_4&#45;&gt;node_9</title>
<path fill="none" stroke="black" d="M511.11,-119.76C568.78,-119.23 709.05,-117.95 809.61,-117.03"/>
<polygon fill="black" stroke="black" points="809.58,-120.53 819.54,-116.94 809.51,-113.53 809.58,-120.53"/>
</g>
<!-- node_12 -->
<g id="node12" class="node">
<title>node_12</title>
<polygon fill="yellowgreen" stroke="black" points="1491,-96 1464,-78 1491,-60 1518,-78 1491,-96"/>
<text text-anchor="middle" x="1491" y="-72.58" font-family="Times New Roman,serif" font-size="14.00">+</text>
</g>
<!-- node_10&#45;&gt;node_12 -->
<g id="edge10" class="edge">
<title>node_10&#45;&gt;node_12</title>
<path fill="none" stroke="black" d="M1416.5,-112.68C1429.69,-106.46 1448.91,-97.39 1464.38,-90.09"/>
<polygon fill="black" stroke="black" points="1465.46,-93.45 1473.01,-86.02 1462.47,-87.12 1465.46,-93.45"/>
</g>
<!-- node_11 -->
<g id="node10" class="node">
<title>node_11</title>
<path fill="lightblue" stroke="black" d="M719.5,-92C719.5,-92 540.75,-92 540.75,-92 534.75,-92 528.75,-86 528.75,-80 528.75,-80 528.75,-68 528.75,-68 528.75,-62 534.75,-56 540.75,-56 540.75,-56 719.5,-56 719.5,-56 725.5,-56 731.5,-62 731.5,-68 731.5,-68 731.5,-80 731.5,-80 731.5,-86 725.5,-92 719.5,-92"/>
<text text-anchor="middle" x="630.12" y="-68.58" font-family="Times New Roman,serif" font-size="14.00">S4, impacts: cost: 0, dur: [0, 100]</text>
</g>
<!-- node_11&#45;&gt;node_12 -->
<g id="edge12" class="edge">
<title>node_11&#45;&gt;node_12</title>
<path fill="none" stroke="black" d="M731.71,-74C787.7,-74 858.65,-74 921.88,-74 921.88,-74 921.88,-74 1401,-74 1418.67,-74 1438.3,-74.8 1454.62,-75.68"/>
<polygon fill="black" stroke="black" points="1454.14,-79.16 1464.33,-76.24 1454.54,-72.17 1454.14,-79.16"/>
</g>
<!-- node_3 -->
<g id="node11" class="node">
<title>node_3</title>
<polygon fill="yellowgreen" stroke="black" points="191,-96 164,-78 191,-60 218,-78 191,-96"/>
<text text-anchor="middle" x="191" y="-72.58" font-family="Times New Roman,serif" font-size="14.00">+</text>
</g>
<!-- node_3&#45;&gt;node_4 -->
<g id="edge9" class="edge">
<title>node_3&#45;&gt;node_4</title>
<path fill="none" stroke="black" d="M211.2,-82.78C218.88,-84.58 227.82,-86.54 236,-88 311.28,-101.4 400.42,-111.57 448.26,-116.57"/>
<polygon fill="black" stroke="black" points="447.69,-120.03 458,-117.57 448.41,-113.06 447.69,-120.03"/>
</g>
<!-- node_3&#45;&gt;node_11 -->
<g id="edge11" class="edge">
<title>node_3&#45;&gt;node_11</title>
<path fill="none" stroke="black" d="M218.36,-77.76C276.03,-77.23 416.3,-75.95 516.86,-75.03"/>
<polygon fill="black" stroke="black" points="516.83,-78.53 526.79,-74.94 516.76,-71.53 516.83,-78.53"/>
</g>
<!-- node_14 -->
<g id="node15" class="node">
<title>node_14</title>
<polygon fill="yellowgreen" stroke="black" points="1582,-62 1555,-44 1582,-26 1609,-44 1582,-62"/>
<text text-anchor="middle" x="1582" y="-38.58" font-family="Times New Roman,serif" font-size="14.00">+</text>
</g>
<!-- node_12&#45;&gt;node_14 -->
<g id="edge14" class="edge">
<title>node_12&#45;&gt;node_14</title>
<path fill="none" stroke="black" d="M1508.74,-71.6C1521.34,-66.79 1538.88,-60.09 1553.53,-54.5"/>
<polygon fill="black" stroke="black" points="1554.53,-57.86 1562.62,-51.02 1552.03,-51.32 1554.53,-57.86"/>
</g>
<!-- node_13 -->
<g id="node13" class="node">
<title>node_13</title>
<path fill="lightblue" stroke="black" d="M426.75,-50C426.75,-50 248,-50 248,-50 242,-50 236,-44 236,-38 236,-38 236,-26 236,-26 236,-20 242,-14 248,-14 248,-14 426.75,-14 426.75,-14 432.75,-14 438.75,-20 438.75,-26 438.75,-26 438.75,-38 438.75,-38 438.75,-44 432.75,-50 426.75,-50"/>
<text text-anchor="middle" x="337.38" y="-26.57" font-family="Times New Roman,serif" font-size="14.00">S5, impacts: cost: 0, dur: [0, 100]</text>
</g>
<!-- node_13&#45;&gt;node_14 -->
<g id="edge16" class="edge">
<title>node_13&#45;&gt;node_14</title>
<path fill="none" stroke="black" d="M438.96,-32C494.95,-32 565.9,-32 629.12,-32 629.12,-32 629.12,-32 1492,-32 1511.26,-32 1532.65,-34.79 1549.63,-37.68"/>
<polygon fill="black" stroke="black" points="1548.65,-41.06 1559.11,-39.4 1549.9,-34.18 1548.65,-41.06"/>
</g>
<!-- node_2&#45;&gt;node_3 -->
<g id="edge13" class="edge">
<title>node_2&#45;&gt;node_3</title>
<path fill="none" stroke="black" d="M117.74,-50.4C130.34,-55.21 147.88,-61.91 162.53,-67.5"/>
<polygon fill="black" stroke="black" points="161.03,-70.68 171.62,-70.98 163.53,-64.14 161.03,-70.68"/>
</g>
<!-- node_2&#45;&gt;node_13 -->
<g id="edge15" class="edge">
<title>node_2&#45;&gt;node_13</title>
<path fill="none" stroke="black" d="M125.74,-42.74C149.54,-41.53 187.27,-39.6 224.25,-37.72"/>
<polygon fill="black" stroke="black" points="224.37,-41.21 234.18,-37.21 224.02,-34.22 224.37,-41.21"/>
</g>
<!-- node_15 -->
<g id="node18" class="node">
<title>node_15</title>
<polygon fill="orange" stroke="black" points="1673,-62 1646,-44 1673,-26 1700,-44 1673,-62"/>
<text text-anchor="middle" x="1673" y="-38.58" font-family="Times New Roman,serif" font-size="14.00">N</text>
</g>
<!-- node_14&#45;&gt;node_15 -->
<g id="edge21" class="edge">
<title>node_14&#45;&gt;node_15</title>
<path fill="none" stroke="black" d="M1609.7,-44C1617.36,-44 1625.86,-44 1634.05,-44"/>
<polygon fill="black" stroke="black" points="1633.8,-47.5 1643.8,-44 1633.8,-40.5 1633.8,-47.5"/>
</g>
<!-- node_16 -->
<g id="node16" class="node">
<title>node_16</title>
<path fill="lightblue" stroke="black" d="M1944.75,-90C1944.75,-90 1765.25,-90 1765.25,-90 1759.25,-90 1753.25,-84 1753.25,-78 1753.25,-78 1753.25,-66 1753.25,-66 1753.25,-60 1759.25,-54 1765.25,-54 1765.25,-54 1944.75,-54 1944.75,-54 1950.75,-54 1956.75,-60 1956.75,-66 1956.75,-66 1956.75,-78 1956.75,-78 1956.75,-84 1950.75,-90 1944.75,-90"/>
<text text-anchor="middle" x="1855" y="-66.58" font-family="Times New Roman,serif" font-size="14.00">T1, impacts: cost: 0, dur: [0, 100]</text>
</g>
<!-- node_18 -->
<g id="node19" class="node">
<title>node_18</title>
<polygon fill="orange" stroke="black" points="2020.75,-62 1993.75,-44 2020.75,-26 2047.75,-44 2020.75,-62"/>
<text text-anchor="middle" x="2020.75" y="-38.58" font-family="Times New Roman,serif" font-size="14.00">N</text>
</g>
<!-- node_16&#45;&gt;node_18 -->
<g id="edge18" class="edge">
<title>node_16&#45;&gt;node_18</title>
<path fill="none" stroke="black" d="M1956.91,-54.75C1967.8,-52.88 1978.22,-51.1 1987.33,-49.54"/>
<polygon fill="black" stroke="black" points="1987.72,-53.03 1996.99,-47.89 1986.54,-46.13 1987.72,-53.03"/>
</g>
<!-- node_17 -->
<g id="node17" class="node">
<title>node_17</title>
<path fill="lightblue" stroke="black" d="M1944.75,-36C1944.75,-36 1765.25,-36 1765.25,-36 1759.25,-36 1753.25,-30 1753.25,-24 1753.25,-24 1753.25,-12 1753.25,-12 1753.25,-6 1759.25,0 1765.25,0 1765.25,0 1944.75,0 1944.75,0 1950.75,0 1956.75,-6 1956.75,-12 1956.75,-12 1956.75,-24 1956.75,-24 1956.75,-30 1950.75,-36 1944.75,-36"/>
<text text-anchor="middle" x="1855" y="-12.57" font-family="Times New Roman,serif" font-size="14.00">T2, impacts: cost: 0, dur: [0, 100]</text>
</g>
<!-- node_17&#45;&gt;node_18 -->
<g id="edge20" class="edge">
<title>node_17&#45;&gt;node_18</title>
<path fill="none" stroke="black" d="M1956.91,-34.02C1967.71,-35.74 1978.04,-37.38 1987.1,-38.82"/>
<polygon fill="black" stroke="black" points="1986.28,-42.23 1996.7,-40.34 1987.37,-35.32 1986.28,-42.23"/>
</g>
<!-- node_15&#45;&gt;node_16 -->
<g id="edge17" class="edge">
<title>node_15&#45;&gt;node_16</title>
<path fill="none" stroke="black" d="M1695.71,-47.38C1707.95,-49.28 1724.27,-51.82 1741.78,-54.54"/>
<polygon fill="black" stroke="black" points="1740.9,-57.95 1751.32,-56.03 1741.98,-51.03 1740.9,-57.95"/>
<text text-anchor="middle" x="1726.62" y="-56.45" font-family="Times New Roman,serif" font-size="14.00">0.5</text>
</g>
<!-- node_15&#45;&gt;node_17 -->
<g id="edge19" class="edge">
<title>node_15&#45;&gt;node_17</title>
<path fill="none" stroke="black" d="M1691.34,-37.64C1699.35,-34.95 1709.05,-32.03 1718,-30.25 1725.66,-28.73 1733.61,-27.39 1741.64,-26.22"/>
<polygon fill="black" stroke="black" points="1742.08,-29.69 1751.52,-24.88 1741.14,-22.76 1742.08,-29.69"/>
<text text-anchor="middle" x="1726.62" y="-33.45" font-family="Times New Roman,serif" font-size="14.00">0.5</text>
</g>
<!-- node_19 -->
<g id="node22" class="node">
<title>node_19</title>
<polygon fill="orange" stroke="black" points="2111.75,-62 2084.75,-44 2111.75,-26 2138.75,-44 2111.75,-62"/>
<text text-anchor="middle" x="2111.75" y="-38.58" font-family="Times New Roman,serif" font-size="14.00">X</text>
</g>
<!-- node_18&#45;&gt;node_19 -->
<g id="edge26" class="edge">
<title>node_18&#45;&gt;node_19</title>
<path fill="none" stroke="black" d="M2048.45,-44C2056.11,-44 2064.61,-44 2072.8,-44"/>
<polygon fill="black" stroke="black" points="2072.55,-47.5 2082.55,-44 2072.55,-40.5 2072.55,-47.5"/>
</g>
<!-- node_20 -->
<g id="node20" class="node">
<title>node_20</title>
<path fill="lightblue" stroke="black" d="M2368,-90C2368,-90 2187.75,-90 2187.75,-90 2181.75,-90 2175.75,-84 2175.75,-78 2175.75,-78 2175.75,-66 2175.75,-66 2175.75,-60 2181.75,-54 2187.75,-54 2187.75,-54 2368,-54 2368,-54 2374,-54 2380,-60 2380,-66 2380,-66 2380,-78 2380,-78 2380,-84 2374,-90 2368,-90"/>
<text text-anchor="middle" x="2277.88" y="-66.58" font-family="Times New Roman,serif" font-size="14.00">C1, impacts: cost: 0, dur: [0, 100]</text>
</g>
<!-- node_22 -->
<g id="node23" class="node">
<title>node_22</title>
<polygon fill="orange" stroke="black" points="2444,-62 2417,-44 2444,-26 2471,-44 2444,-62"/>
<text text-anchor="middle" x="2444" y="-38.58" font-family="Times New Roman,serif" font-size="14.00">X</text>
</g>
<!-- node_20&#45;&gt;node_22 -->
<g id="edge23" class="edge">
<title>node_20&#45;&gt;node_22</title>
<path fill="none" stroke="black" d="M2380.48,-54.67C2391.34,-52.81 2401.7,-51.05 2410.77,-49.5"/>
<polygon fill="black" stroke="black" points="2411.1,-52.99 2420.37,-47.86 2409.92,-46.09 2411.1,-52.99"/>
</g>
<!-- node_21 -->
<g id="node21" class="node">
<title>node_21</title>
<path fill="lightblue" stroke="black" d="M2368,-36C2368,-36 2187.75,-36 2187.75,-36 2181.75,-36 2175.75,-30 2175.75,-24 2175.75,-24 2175.75,-12 2175.75,-12 2175.75,-6 2181.75,0 2187.75,0 2187.75,0 2368,0 2368,0 2374,0 2380,-6 2380,-12 2380,-12 2380,-24 2380,-24 2380,-30 2374,-36 2368,-36"/>
<text text-anchor="middle" x="2277.88" y="-12.57" font-family="Times New Roman,serif" font-size="14.00">C2, impacts: cost: 0, dur: [0, 100]</text>
</g>
<!-- node_21&#45;&gt;node_22 -->
<g id="edge25" class="edge">
<title>node_21&#45;&gt;node_22</title>
<path fill="none" stroke="black" d="M2380.48,-34.1C2391.03,-35.77 2401.13,-37.37 2410.01,-38.77"/>
<polygon fill="black" stroke="black" points="2409.37,-42.22 2419.8,-40.32 2410.47,-35.3 2409.37,-42.22"/>
</g>
<!-- node_19&#45;&gt;node_20 -->
<g id="edge22" class="edge">
<title>node_19&#45;&gt;node_20</title>
<path fill="none" stroke="black" d="M2133.87,-47.6C2142.33,-49.05 2152.78,-50.83 2164.14,-52.77"/>
<polygon fill="black" stroke="black" points="2163.34,-56.18 2173.79,-54.41 2164.52,-49.28 2163.34,-56.18"/>
</g>
<!-- node_19&#45;&gt;node_21 -->
<g id="edge24" class="edge">
<title>node_19&#45;&gt;node_21</title>
<path fill="none" stroke="black" d="M2134.21,-40.6C2142.63,-39.27 2152.99,-37.63 2164.24,-35.84"/>
<polygon fill="black" stroke="black" points="2164.44,-39.35 2173.77,-34.33 2163.35,-32.44 2164.44,-39.35"/>
</g>
<!-- node_22&#45;&gt;end -->
<g id="edge28" class="edge">
<title>node_22&#45;&gt;end</title>
<path fill="none" stroke="black" d="M2471.58,-44C2479.39,-44 2488.04,-44 2496.19,-44"/>
<polygon fill="black" stroke="black" points="2496.13,-47.5 2506.13,-44 2496.13,-40.5 2496.13,-47.5"/>
</g>
</g>
</svg>
