<?xml version="1.0" encoding="UTF-8" standalone="no"?>
<!DOCTYPE svg PUBLIC "-//W3C//DTD SVG 1.1//EN"
 "http://www.w3.org/Graphics/SVG/1.1/DTD/svg11.dtd">
<!-- Generated by graphviz version 9.0.0 (20230911.1827)
 -->
<!-- Title: my_graph Pages: 1 -->
<svg width="563pt" height="90pt"
 viewBox="0.00 0.00 562.75 90.00" xmlns="http://www.w3.org/2000/svg" xmlns:xlink="http://www.w3.org/1999/xlink">
<g id="graph0" class="graph" transform="scale(1 1) rotate(0) translate(4 86)">
<title>my_graph</title>
<polygon fill="white" stroke="none" points="-4,4 -4,-86 558.75,-86 558.75,4 -4,4"/>
<!-- start -->
<g id="node1" class="node">
<title>start</title>
<ellipse fill="#9aff9a" stroke="black" cx="18" cy="-41" rx="18" ry="18"/>
</g>
<!-- node_0 -->
<g id="node6" class="node">
<title>node_0</title>
<polygon fill="orange" stroke="black" points="100,-59 73,-41 100,-23 127,-41 100,-59"/>
<text text-anchor="middle" x="100" y="-35.58" font-family="Times New Roman,serif" font-size="14.00">N</text>
</g>
<!-- start&#45;&gt;node_0 -->
<g id="edge6" class="edge">
<title>start&#45;&gt;node_0</title>
<path fill="none" stroke="black" d="M36.36,-41C43.56,-41 52.23,-41 60.78,-41"/>
<polygon fill="black" stroke="black" points="60.72,-44.5 70.72,-41 60.72,-37.5 60.72,-44.5"/>
</g>
<!-- end -->
<g id="node2" class="node">
<title>end</title>
<ellipse fill="orangered" stroke="black" cx="532.75" cy="-41" rx="18" ry="18"/>
<ellipse fill="none" stroke="black" cx="532.75" cy="-41" rx="22" ry="22"/>
</g>
<!-- node_1 -->
<g id="node3" class="node">
<title>node_1</title>
<path fill="lightblue" stroke="black" d="M297,-82C297,-82 266,-82 266,-82 260,-82 254,-76 254,-70 254,-70 254,-58 254,-58 254,-52 260,-46 266,-46 266,-46 297,-46 297,-46 303,-46 309,-52 309,-58 309,-58 309,-70 309,-70 309,-76 303,-82 297,-82"/>
<text text-anchor="middle" x="281.5" y="-58.58" font-family="Times New Roman,serif" font-size="14.00">B[0, 0]</text>
</g>
<!-- node_5 -->
<g id="node7" class="node">
<title>node_5</title>
<polygon fill="orange" stroke="black" points="446.75,-59 419.75,-41 446.75,-23 473.75,-41 446.75,-59"/>
<text text-anchor="middle" x="446.75" y="-35.58" font-family="Times New Roman,serif" font-size="14.00">N</text>
</g>
<!-- node_1&#45;&gt;node_5 -->
<g id="edge3" class="edge">
<title>node_1&#45;&gt;node_5</title>
<path fill="none" stroke="black" d="M309.46,-60.2C337.76,-56.21 382.29,-49.94 412.69,-45.66"/>
<polygon fill="black" stroke="black" points="413.07,-49.14 422.48,-44.28 412.09,-42.21 413.07,-49.14"/>
</g>
<!-- node_3 -->
<g id="node4" class="node">
<title>node_3</title>
<path fill="lightblue" stroke="black" d="M224,-36C224,-36 192.25,-36 192.25,-36 186.25,-36 180.25,-30 180.25,-24 180.25,-24 180.25,-12 180.25,-12 180.25,-6 186.25,0 192.25,0 192.25,0 224,0 224,0 230,0 236,-6 236,-12 236,-12 236,-24 236,-24 236,-30 230,-36 224,-36"/>
<text text-anchor="middle" x="208.12" y="-12.57" font-family="Times New Roman,serif" font-size="14.00">C[0, 0]</text>
</g>
<!-- node_4 -->
<g id="node5" class="node">
<title>node_4</title>
<path fill="lightblue" stroke="black" d="M370.75,-36C370.75,-36 339,-36 339,-36 333,-36 327,-30 327,-24 327,-24 327,-12 327,-12 327,-6 333,0 339,0 339,0 370.75,0 370.75,0 376.75,0 382.75,-6 382.75,-12 382.75,-12 382.75,-24 382.75,-24 382.75,-30 376.75,-36 370.75,-36"/>
<text text-anchor="middle" x="354.88" y="-12.57" font-family="Times New Roman,serif" font-size="14.00">K[0, 0]</text>
</g>
<!-- node_3&#45;&gt;node_4 -->
<g id="edge1" class="edge">
<title>node_3&#45;&gt;node_4</title>
<path fill="none" stroke="black" d="M236.35,-18C258.69,-18 290.59,-18 315.52,-18"/>
<polygon fill="black" stroke="black" points="315.26,-21.5 325.26,-18 315.26,-14.5 315.26,-21.5"/>
</g>
<!-- node_4&#45;&gt;node_5 -->
<g id="edge5" class="edge">
<title>node_4&#45;&gt;node_5</title>
<path fill="none" stroke="black" d="M382.84,-24.9C393.17,-27.54 405.01,-30.58 415.62,-33.29"/>
<polygon fill="black" stroke="black" points="414.49,-36.61 425.04,-35.7 416.22,-29.83 414.49,-36.61"/>
</g>
<!-- node_0&#45;&gt;node_1 -->
<g id="edge2" class="edge">
<title>node_0&#45;&gt;node_1</title>
<path fill="none" stroke="black" d="M123.37,-43.87C153.22,-47.69 206.51,-54.52 242.66,-59.15"/>
<polygon fill="black" stroke="black" points="241.88,-62.58 252.25,-60.38 242.77,-55.64 241.88,-62.58"/>
<text text-anchor="middle" x="153.62" y="-50.45" font-family="Times New Roman,serif" font-size="14.00">0.5</text>
</g>
<!-- node_0&#45;&gt;node_3 -->
<g id="edge4" class="edge">
<title>node_0&#45;&gt;node_3</title>
<path fill="none" stroke="black" d="M117.92,-34.48C126.01,-31.59 135.9,-28.36 145,-26.25 152.62,-24.48 160.86,-23.06 168.77,-21.92"/>
<polygon fill="black" stroke="black" points="169.05,-25.42 178.51,-20.66 168.14,-18.48 169.05,-25.42"/>
<text text-anchor="middle" x="153.62" y="-29.45" font-family="Times New Roman,serif" font-size="14.00">0.5</text>
</g>
<!-- node_5&#45;&gt;end -->
<g id="edge7" class="edge">
<title>node_5&#45;&gt;end</title>
<path fill="none" stroke="black" d="M474.33,-41C482.14,-41 490.79,-41 498.94,-41"/>
<polygon fill="black" stroke="black" points="498.88,-44.5 508.88,-41 498.88,-37.5 498.88,-44.5"/>
</g>
</g>
</svg>
