<?xml version="1.0" encoding="UTF-8" standalone="no"?>
<!DOCTYPE svg PUBLIC "-//W3C//DTD SVG 1.1//EN"
 "http://www.w3.org/Graphics/SVG/1.1/DTD/svg11.dtd">
<!-- Generated by graphviz version 9.0.0 (20230911.1827)
 -->
<!-- Title: my_graph Pages: 1 -->
<svg width="1268pt" height="98pt"
 viewBox="0.00 0.00 1268.25 98.00" xmlns="http://www.w3.org/2000/svg" xmlns:xlink="http://www.w3.org/1999/xlink">
<g id="graph0" class="graph" transform="scale(1 1) rotate(0) translate(4 94)">
<title>my_graph</title>
<polygon fill="white" stroke="none" points="-4,4 -4,-94 1264.25,-94 1264.25,4 -4,4"/>
<!-- start -->
<g id="node1" class="node">
<title>start</title>
<ellipse fill="#9aff9a" stroke="black" cx="18" cy="-44" rx="18" ry="18"/>
</g>
<!-- node_1 -->
<g id="node5" class="node">
<title>node_1</title>
<polygon fill="orange" stroke="black" points="100,-62 73,-44 100,-26 127,-44 100,-62"/>
<text text-anchor="middle" x="100" y="-38.58" font-family="Times New Roman,serif" font-size="14.00">N</text>
</g>
<!-- start&#45;&gt;node_1 -->
<g id="edge10" class="edge">
<title>start&#45;&gt;node_1</title>
<path fill="none" stroke="black" d="M36.36,-44C43.56,-44 52.23,-44 60.78,-44"/>
<polygon fill="black" stroke="black" points="60.72,-47.5 70.72,-44 60.72,-40.5 60.72,-47.5"/>
</g>
<!-- end -->
<g id="node2" class="node">
<title>end</title>
<ellipse fill="orangered" stroke="black" cx="1238.25" cy="-44" rx="18" ry="18"/>
<ellipse fill="none" stroke="black" cx="1238.25" cy="-44" rx="22" ry="22"/>
</g>
<!-- node_2 -->
<g id="node3" class="node">
<title>node_2</title>
<path fill="lightblue" stroke="black" d="M513.5,-90C513.5,-90 192.25,-90 192.25,-90 186.25,-90 180.25,-84 180.25,-78 180.25,-78 180.25,-66 180.25,-66 180.25,-60 186.25,-54 192.25,-54 192.25,-54 513.5,-54 513.5,-54 519.5,-54 525.5,-60 525.5,-66 525.5,-66 525.5,-78 525.5,-78 525.5,-84 519.5,-90 513.5,-90"/>
<text text-anchor="middle" x="352.88" y="-66.58" font-family="Times New Roman,serif" font-size="14.00">Bending, impacts: cost: 5, working_hours: 4, dur: [39, 100]</text>
</g>
<!-- node_4 -->
<g id="node6" class="node">
<title>node_4</title>
<polygon fill="orange" stroke="black" points="589.5,-62 562.5,-44 589.5,-26 616.5,-44 589.5,-62"/>
<text text-anchor="middle" x="589.5" y="-38.58" font-family="Times New Roman,serif" font-size="14.00">N</text>
</g>
<!-- node_2&#45;&gt;node_4 -->
<g id="edge2" class="edge">
<title>node_2&#45;&gt;node_4</title>
<path fill="none" stroke="black" d="M516.13,-53.5C525.73,-52.34 535.25,-51.16 544.5,-50 547.98,-49.56 551.62,-49.09 555.24,-48.61"/>
<polygon fill="black" stroke="black" points="555.64,-52.09 565.08,-47.28 554.7,-45.15 555.64,-52.09"/>
</g>
<!-- node_3 -->
<g id="node4" class="node">
<title>node_3</title>
<path fill="lightblue" stroke="black" d="M506,-36C506,-36 199.75,-36 199.75,-36 193.75,-36 187.75,-30 187.75,-24 187.75,-24 187.75,-12 187.75,-12 187.75,-6 193.75,0 199.75,0 199.75,0 506,0 506,0 512,0 518,-6 518,-12 518,-12 518,-24 518,-24 518,-30 512,-36 506,-36"/>
<text text-anchor="middle" x="352.88" y="-12.57" font-family="Times New Roman,serif" font-size="14.00">Milling, impacts: cost: 3, working_hours: 2, dur: [67, 85]</text>
</g>
<!-- node_3&#45;&gt;node_4 -->
<g id="edge4" class="edge">
<title>node_3&#45;&gt;node_4</title>
<path fill="none" stroke="black" d="M518.42,-36.23C531.55,-37.69 543.72,-39.04 554.12,-40.19"/>
<polygon fill="black" stroke="black" points="553.63,-43.66 563.96,-41.28 554.4,-36.7 553.63,-43.66"/>
</g>
<!-- node_1&#45;&gt;node_2 -->
<g id="edge1" class="edge">
<title>node_1&#45;&gt;node_2</title>
<path fill="none" stroke="black" d="M123.71,-46.53C136.89,-48.01 154.83,-50.01 174.91,-52.25"/>
<polygon fill="black" stroke="black" points="174.43,-55.72 184.76,-53.35 175.21,-48.76 174.43,-55.72"/>
<text text-anchor="middle" x="153.62" y="-52.45" font-family="Times New Roman,serif" font-size="14.00">0.6</text>
</g>
<!-- node_1&#45;&gt;node_3 -->
<g id="edge3" class="edge">
<title>node_1&#45;&gt;node_3</title>
<path fill="none" stroke="black" d="M117.89,-37.66C125.98,-34.9 135.87,-31.92 145,-30.25 155.18,-28.39 165.68,-26.79 176.31,-25.42"/>
<polygon fill="black" stroke="black" points="176.41,-28.93 185.91,-24.25 175.56,-21.98 176.41,-28.93"/>
<text text-anchor="middle" x="153.62" y="-33.45" font-family="Times New Roman,serif" font-size="14.00">0.4</text>
</g>
<!-- node_5 -->
<g id="node9" class="node">
<title>node_5</title>
<polygon fill="orange" stroke="black" points="680.5,-62 653.5,-44 680.5,-26 707.5,-44 680.5,-62"/>
<text text-anchor="middle" x="680.5" y="-38.58" font-family="Times New Roman,serif" font-size="14.00">X</text>
</g>
<!-- node_4&#45;&gt;node_5 -->
<g id="edge9" class="edge">
<title>node_4&#45;&gt;node_5</title>
<path fill="none" stroke="black" d="M617.2,-44C624.86,-44 633.36,-44 641.55,-44"/>
<polygon fill="black" stroke="black" points="641.3,-47.5 651.3,-44 641.3,-40.5 641.3,-47.5"/>
</g>
<!-- node_6 -->
<g id="node7" class="node">
<title>node_6</title>
<path fill="lightblue" stroke="black" d="M1069.5,-90C1069.5,-90 763.25,-90 763.25,-90 757.25,-90 751.25,-84 751.25,-78 751.25,-78 751.25,-66 751.25,-66 751.25,-60 757.25,-54 763.25,-54 763.25,-54 1069.5,-54 1069.5,-54 1075.5,-54 1081.5,-60 1081.5,-66 1081.5,-66 1081.5,-78 1081.5,-78 1081.5,-84 1075.5,-90 1069.5,-90"/>
<text text-anchor="middle" x="916.38" y="-66.58" font-family="Times New Roman,serif" font-size="14.00">Painting, impacts: cost: 4, working_hours: 7, dur: [0, 66]</text>
</g>
<!-- node_8 -->
<g id="node10" class="node">
<title>node_8</title>
<polygon fill="orange" stroke="black" points="1152.25,-62 1125.25,-44 1152.25,-26 1179.25,-44 1152.25,-62"/>
<text text-anchor="middle" x="1152.25" y="-38.58" font-family="Times New Roman,serif" font-size="14.00">X</text>
</g>
<!-- node_6&#45;&gt;node_8 -->
<g id="edge6" class="edge">
<title>node_6&#45;&gt;node_8</title>
<path fill="none" stroke="black" d="M1078.74,-53.53C1088.39,-52.35 1097.95,-51.17 1107.25,-50 1110.73,-49.56 1114.37,-49.09 1117.99,-48.61"/>
<polygon fill="black" stroke="black" points="1118.39,-52.09 1127.83,-47.28 1117.45,-45.15 1118.39,-52.09"/>
</g>
<!-- node_7 -->
<g id="node8" class="node">
<title>node_7</title>
<path fill="lightblue" stroke="black" d="M1076.25,-36C1076.25,-36 756.5,-36 756.5,-36 750.5,-36 744.5,-30 744.5,-24 744.5,-24 744.5,-12 744.5,-12 744.5,-6 750.5,0 756.5,0 756.5,0 1076.25,0 1076.25,0 1082.25,0 1088.25,-6 1088.25,-12 1088.25,-12 1088.25,-24 1088.25,-24 1088.25,-30 1082.25,-36 1076.25,-36"/>
<text text-anchor="middle" x="916.38" y="-12.57" font-family="Times New Roman,serif" font-size="14.00">Polishing, impacts: cost: 3, working_hours: 8, dur: [24, 63]</text>
</g>
<!-- node_7&#45;&gt;node_8 -->
<g id="edge8" class="edge">
<title>node_7&#45;&gt;node_8</title>
<path fill="none" stroke="black" d="M1083.6,-36.48C1095.98,-37.86 1107.46,-39.13 1117.31,-40.23"/>
<polygon fill="black" stroke="black" points="1116.65,-43.67 1126.97,-41.3 1117.42,-36.72 1116.65,-43.67"/>
</g>
<!-- node_5&#45;&gt;node_6 -->
<g id="edge5" class="edge">
<title>node_5&#45;&gt;node_6</title>
<path fill="none" stroke="black" d="M703.42,-47.08C710.47,-48.04 718.31,-49.09 725.5,-50 731.17,-50.71 736.93,-51.43 742.75,-52.15"/>
<polygon fill="black" stroke="black" points="742.16,-55.6 752.51,-53.35 743.01,-48.66 742.16,-55.6"/>
</g>
<!-- node_5&#45;&gt;node_7 -->
<g id="edge7" class="edge">
<title>node_5&#45;&gt;node_7</title>
<path fill="none" stroke="black" d="M704.35,-41.46C713.6,-40.43 725.15,-39.15 738.06,-37.71"/>
<polygon fill="black" stroke="black" points="738.14,-41.22 747.69,-36.64 737.37,-34.27 738.14,-41.22"/>
</g>
<!-- node_8&#45;&gt;end -->
<g id="edge11" class="edge">
<title>node_8&#45;&gt;end</title>
<path fill="none" stroke="black" d="M1179.83,-44C1187.64,-44 1196.29,-44 1204.44,-44"/>
<polygon fill="black" stroke="black" points="1204.38,-47.5 1214.38,-44 1204.38,-40.5 1204.38,-47.5"/>
</g>
</g>
</svg>
