<?xml version="1.0" encoding="UTF-8" standalone="no"?>
<!DOCTYPE svg PUBLIC "-//W3C//DTD SVG 1.1//EN"
 "http://www.w3.org/Graphics/SVG/1.1/DTD/svg11.dtd">
<!-- Generated by graphviz version 9.0.0 (20230911.1827)
 -->
<!-- Title: my_graph Pages: 1 -->
<svg width="429pt" height="98pt"
 viewBox="0.00 0.00 428.75 98.00" xmlns="http://www.w3.org/2000/svg" xmlns:xlink="http://www.w3.org/1999/xlink">
<g id="graph0" class="graph" transform="scale(1 1) rotate(0) translate(4 94)">
<title>my_graph</title>
<polygon fill="white" stroke="none" points="-4,4 -4,-94 424.75,-94 424.75,4 -4,4"/>
<!-- start -->
<g id="node1" class="node">
<title>start</title>
<ellipse fill="#9aff9a" stroke="black" cx="18" cy="-44" rx="18" ry="18"/>
</g>
<!-- node_0 -->
<g id="node5" class="node">
<title>node_0</title>
<polygon fill="orange" stroke="black" points="100,-62 73,-44 100,-26 127,-44 100,-62"/>
<text text-anchor="middle" x="100" y="-38.58" font-family="Times New Roman,serif" font-size="14.00">N</text>
</g>
<!-- start&#45;&gt;node_0 -->
<g id="edge5" class="edge">
<title>start&#45;&gt;node_0</title>
<path fill="none" stroke="black" d="M36.36,-44C43.56,-44 52.23,-44 60.78,-44"/>
<polygon fill="black" stroke="black" points="60.72,-47.5 70.72,-44 60.72,-40.5 60.72,-47.5"/>
</g>
<!-- end -->
<g id="node2" class="node">
<title>end</title>
<ellipse fill="orangered" stroke="black" cx="398.75" cy="-44" rx="18" ry="18"/>
<ellipse fill="none" stroke="black" cx="398.75" cy="-44" rx="22" ry="22"/>
</g>
<!-- node_1 -->
<g id="node3" class="node">
<title>node_1</title>
<path fill="lightblue" stroke="black" d="M236.75,-90C236.75,-90 192.25,-90 192.25,-90 186.25,-90 180.25,-84 180.25,-78 180.25,-78 180.25,-66 180.25,-66 180.25,-60 186.25,-54 192.25,-54 192.25,-54 236.75,-54 236.75,-54 242.75,-54 248.75,-60 248.75,-66 248.75,-66 248.75,-78 248.75,-78 248.75,-84 242.75,-90 236.75,-90"/>
<text text-anchor="middle" x="214.5" y="-66.58" font-family="Times New Roman,serif" font-size="14.00">B[10, 12]</text>
</g>
<!-- node_3 -->
<g id="node6" class="node">
<title>node_3</title>
<polygon fill="orange" stroke="black" points="312.75,-62 285.75,-44 312.75,-26 339.75,-44 312.75,-62"/>
<text text-anchor="middle" x="312.75" y="-38.58" font-family="Times New Roman,serif" font-size="14.00">N</text>
</g>
<!-- node_1&#45;&gt;node_3 -->
<g id="edge2" class="edge">
<title>node_1&#45;&gt;node_3</title>
<path fill="none" stroke="black" d="M249.16,-62.21C259.88,-59.09 271.64,-55.67 282.06,-52.64"/>
<polygon fill="black" stroke="black" points="283.03,-56 291.65,-49.85 281.07,-49.28 283.03,-56"/>
</g>
<!-- node_2 -->
<g id="node4" class="node">
<title>node_2</title>
<path fill="lightblue" stroke="black" d="M230.38,-36C230.38,-36 198.62,-36 198.62,-36 192.62,-36 186.62,-30 186.62,-24 186.62,-24 186.62,-12 186.62,-12 186.62,-6 192.62,0 198.62,0 198.62,0 230.38,0 230.38,0 236.38,0 242.38,-6 242.38,-12 242.38,-12 242.38,-24 242.38,-24 242.38,-30 236.38,-36 230.38,-36"/>
<text text-anchor="middle" x="214.5" y="-12.57" font-family="Times New Roman,serif" font-size="14.00">K[0, 5]</text>
</g>
<!-- node_2&#45;&gt;node_3 -->
<g id="edge4" class="edge">
<title>node_2&#45;&gt;node_3</title>
<path fill="none" stroke="black" d="M242.82,-25.38C254.99,-28.67 269.36,-32.55 281.82,-35.92"/>
<polygon fill="black" stroke="black" points="280.58,-39.21 291.15,-38.43 282.41,-32.45 280.58,-39.21"/>
</g>
<!-- node_0&#45;&gt;node_1 -->
<g id="edge1" class="edge">
<title>node_0&#45;&gt;node_1</title>
<path fill="none" stroke="black" d="M120.34,-48.81C133.74,-52.15 152.14,-56.73 169.05,-60.94"/>
<polygon fill="black" stroke="black" points="167.86,-64.25 178.41,-63.27 169.55,-57.46 167.86,-64.25"/>
<text text-anchor="middle" x="153.62" y="-60.45" font-family="Times New Roman,serif" font-size="14.00">0.5</text>
</g>
<!-- node_0&#45;&gt;node_2 -->
<g id="edge3" class="edge">
<title>node_0&#45;&gt;node_2</title>
<path fill="none" stroke="black" d="M118.41,-38C126.44,-35.38 136.14,-32.42 145,-30.25 154.7,-27.88 165.28,-25.76 175.15,-23.98"/>
<polygon fill="black" stroke="black" points="175.58,-27.46 184.84,-22.31 174.39,-20.56 175.58,-27.46"/>
<text text-anchor="middle" x="153.62" y="-33.45" font-family="Times New Roman,serif" font-size="14.00">0.5</text>
</g>
<!-- node_3&#45;&gt;end -->
<g id="edge6" class="edge">
<title>node_3&#45;&gt;end</title>
<path fill="none" stroke="black" d="M340.33,-44C348.14,-44 356.79,-44 364.94,-44"/>
<polygon fill="black" stroke="black" points="364.88,-47.5 374.88,-44 364.88,-40.5 364.88,-47.5"/>
</g>
</g>
</svg>
