<?xml version="1.0" encoding="UTF-8" standalone="no"?>
<!DOCTYPE svg PUBLIC "-//W3C//DTD SVG 1.1//EN"
 "http://www.w3.org/Graphics/SVG/1.1/DTD/svg11.dtd">
<!-- Generated by graphviz version 9.0.0 (20230911.1827)
 -->
<!-- Title: my_graph Pages: 1 -->
<svg width="951pt" height="132pt"
 viewBox="0.00 0.00 951.00 132.00" xmlns="http://www.w3.org/2000/svg" xmlns:xlink="http://www.w3.org/1999/xlink">
<g id="graph0" class="graph" transform="scale(1 1) rotate(0) translate(4 128)">
<title>my_graph</title>
<polygon fill="white" stroke="none" points="-4,4 -4,-128 947,-128 947,4 -4,4"/>
<!-- start -->
<g id="node1" class="node">
<title>start</title>
<ellipse fill="#9aff9a" stroke="black" cx="18" cy="-37" rx="18" ry="18"/>
</g>
<!-- node_0 -->
<g id="node9" class="node">
<title>node_0</title>
<polygon fill="orange" stroke="black" points="100,-55 73,-37 100,-19 127,-37 100,-55"/>
<text text-anchor="middle" x="100" y="-31.57" font-family="Times New Roman,serif" font-size="14.00">N</text>
</g>
<!-- start&#45;&gt;node_0 -->
<g id="edge10" class="edge">
<title>start&#45;&gt;node_0</title>
<path fill="none" stroke="black" d="M36.36,-37C43.56,-37 52.23,-37 60.78,-37"/>
<polygon fill="black" stroke="black" points="60.72,-40.5 70.72,-37 60.72,-33.5 60.72,-40.5"/>
</g>
<!-- end -->
<g id="node2" class="node">
<title>end</title>
<ellipse fill="orangered" stroke="black" cx="921" cy="-30" rx="18" ry="18"/>
<ellipse fill="none" stroke="black" cx="921" cy="-30" rx="22" ry="22"/>
</g>
<!-- node_3 -->
<g id="node3" class="node">
<title>node_3</title>
<path fill="lightblue" stroke="black" d="M464.25,-124C464.25,-124 369.5,-124 369.5,-124 363.5,-124 357.5,-118 357.5,-112 357.5,-112 357.5,-100 357.5,-100 357.5,-94 363.5,-88 369.5,-88 369.5,-88 464.25,-88 464.25,-88 470.25,-88 476.25,-94 476.25,-100 476.25,-100 476.25,-112 476.25,-112 476.25,-118 470.25,-124 464.25,-124"/>
<text text-anchor="middle" x="416.88" y="-100.58" font-family="Times New Roman,serif" font-size="14.00">SimpleTask1[0, 0]</text>
</g>
<!-- node_4 -->
<g id="node4" class="node">
<title>node_4</title>
<path fill="lightblue" stroke="black" d="M668,-124C668,-124 611.5,-124 611.5,-124 605.5,-124 599.5,-118 599.5,-112 599.5,-112 599.5,-100 599.5,-100 599.5,-94 605.5,-88 611.5,-88 611.5,-88 668,-88 668,-88 674,-88 680,-94 680,-100 680,-100 680,-112 680,-112 680,-118 674,-124 668,-124"/>
<text text-anchor="middle" x="639.75" y="-100.58" font-family="Times New Roman,serif" font-size="14.00">Task1[0, 0]</text>
</g>
<!-- node_3&#45;&gt;node_4 -->
<g id="edge1" class="edge">
<title>node_3&#45;&gt;node_4</title>
<path fill="none" stroke="black" d="M476.49,-106C511.13,-106 554.56,-106 587.78,-106"/>
<polygon fill="black" stroke="black" points="587.55,-109.5 597.55,-106 587.55,-102.5 587.55,-109.5"/>
</g>
<!-- node_6 -->
<g id="node7" class="node">
<title>node_6</title>
<polygon fill="yellowgreen" stroke="black" points="744,-82 717,-64 744,-46 771,-64 744,-82"/>
<text text-anchor="middle" x="744" y="-58.58" font-family="Times New Roman,serif" font-size="14.00">+</text>
</g>
<!-- node_4&#45;&gt;node_6 -->
<g id="edge3" class="edge">
<title>node_4&#45;&gt;node_6</title>
<path fill="none" stroke="black" d="M680.28,-89.76C692.21,-84.86 705.03,-79.6 715.95,-75.11"/>
<polygon fill="black" stroke="black" points="717.2,-78.38 725.12,-71.34 714.54,-71.91 717.2,-78.38"/>
</g>
<!-- node_5 -->
<g id="node5" class="node">
<title>node_5</title>
<path fill="lightblue" stroke="black" d="M569.5,-78C569.5,-78 506.25,-78 506.25,-78 500.25,-78 494.25,-72 494.25,-66 494.25,-66 494.25,-54 494.25,-54 494.25,-48 500.25,-42 506.25,-42 506.25,-42 569.5,-42 569.5,-42 575.5,-42 581.5,-48 581.5,-54 581.5,-54 581.5,-66 581.5,-66 581.5,-72 575.5,-78 569.5,-78"/>
<text text-anchor="middle" x="537.88" y="-54.58" font-family="Times New Roman,serif" font-size="14.00">Task3[18, 5]</text>
</g>
<!-- node_5&#45;&gt;node_6 -->
<g id="edge5" class="edge">
<title>node_5&#45;&gt;node_6</title>
<path fill="none" stroke="black" d="M581.67,-60.84C618.43,-61.56 670.89,-62.59 705.9,-63.27"/>
<polygon fill="black" stroke="black" points="705.48,-66.77 715.54,-63.46 705.61,-59.77 705.48,-66.77"/>
</g>
<!-- node_1 -->
<g id="node6" class="node">
<title>node_1</title>
<polygon fill="yellowgreen" stroke="black" points="207.25,-82 180.25,-64 207.25,-46 234.25,-64 207.25,-82"/>
<text text-anchor="middle" x="207.25" y="-58.58" font-family="Times New Roman,serif" font-size="14.00">+</text>
</g>
<!-- node_1&#45;&gt;node_3 -->
<g id="edge2" class="edge">
<title>node_1&#45;&gt;node_3</title>
<path fill="none" stroke="black" d="M227.93,-68.61C235.52,-70.35 244.28,-72.32 252.25,-74 282.88,-80.47 316.83,-87.19 345.83,-92.79"/>
<polygon fill="black" stroke="black" points="345.13,-96.21 355.61,-94.67 346.45,-89.34 345.13,-96.21"/>
</g>
<!-- node_1&#45;&gt;node_5 -->
<g id="edge4" class="edge">
<title>node_1&#45;&gt;node_5</title>
<path fill="none" stroke="black" d="M234.59,-63.68C288.19,-63.03 410.91,-61.53 482.42,-60.66"/>
<polygon fill="black" stroke="black" points="482.39,-64.16 492.35,-60.54 482.31,-57.16 482.39,-64.16"/>
</g>
<!-- node_8 -->
<g id="node10" class="node">
<title>node_8</title>
<polygon fill="orange" stroke="black" points="835,-48 808,-30 835,-12 862,-30 835,-48"/>
<text text-anchor="middle" x="835" y="-24.57" font-family="Times New Roman,serif" font-size="14.00">N</text>
</g>
<!-- node_6&#45;&gt;node_8 -->
<g id="edge7" class="edge">
<title>node_6&#45;&gt;node_8</title>
<path fill="none" stroke="black" d="M761.74,-57.6C774.34,-52.79 791.88,-46.09 806.53,-40.5"/>
<polygon fill="black" stroke="black" points="807.53,-43.86 815.62,-37.02 805.03,-37.32 807.53,-43.86"/>
</g>
<!-- node_7 -->
<g id="node8" class="node">
<title>node_7</title>
<path fill="lightblue" stroke="black" d="M327.5,-36C327.5,-36 264.25,-36 264.25,-36 258.25,-36 252.25,-30 252.25,-24 252.25,-24 252.25,-12 252.25,-12 252.25,-6 258.25,0 264.25,0 264.25,0 327.5,0 327.5,0 333.5,0 339.5,-6 339.5,-12 339.5,-12 339.5,-24 339.5,-24 339.5,-30 333.5,-36 327.5,-36"/>
<text text-anchor="middle" x="295.88" y="-12.57" font-family="Times New Roman,serif" font-size="14.00">Task9[18, 5]</text>
</g>
<!-- node_7&#45;&gt;node_8 -->
<g id="edge9" class="edge">
<title>node_7&#45;&gt;node_8</title>
<path fill="none" stroke="black" d="M339.8,-18C387.81,-18 467.92,-18 536.88,-18 536.88,-18 536.88,-18 745,-18 764.26,-18 785.65,-20.79 802.63,-23.68"/>
<polygon fill="black" stroke="black" points="801.65,-27.06 812.11,-25.4 802.9,-20.18 801.65,-27.06"/>
</g>
<!-- node_0&#45;&gt;node_1 -->
<g id="edge6" class="edge">
<title>node_0&#45;&gt;node_1</title>
<path fill="none" stroke="black" d="M120.3,-41.95C135.88,-45.95 158.08,-51.64 176.01,-56.24"/>
<polygon fill="black" stroke="black" points="175.05,-59.61 185.6,-58.7 176.79,-52.83 175.05,-59.61"/>
<text text-anchor="middle" x="153.62" y="-55.45" font-family="Times New Roman,serif" font-size="14.00">0.5</text>
</g>
<!-- node_0&#45;&gt;node_7 -->
<g id="edge8" class="edge">
<title>node_0&#45;&gt;node_7</title>
<path fill="none" stroke="black" d="M121.53,-32.95C128.91,-31.61 137.3,-30.21 145,-29.25 176.52,-25.3 211.95,-22.56 240.44,-20.78"/>
<polygon fill="black" stroke="black" points="240.52,-24.28 250.29,-20.19 240.1,-17.29 240.52,-24.28"/>
<text text-anchor="middle" x="153.62" y="-32.45" font-family="Times New Roman,serif" font-size="14.00">0.5</text>
</g>
<!-- node_8&#45;&gt;end -->
<g id="edge11" class="edge">
<title>node_8&#45;&gt;end</title>
<path fill="none" stroke="black" d="M862.58,-30C870.39,-30 879.04,-30 887.19,-30"/>
<polygon fill="black" stroke="black" points="887.13,-33.5 897.13,-30 887.13,-26.5 887.13,-33.5"/>
</g>
</g>
</svg>
