<?xml version="1.0" encoding="UTF-8" standalone="no"?>
<!DOCTYPE svg PUBLIC "-//W3C//DTD SVG 1.1//EN"
 "http://www.w3.org/Graphics/SVG/1.1/DTD/svg11.dtd">
<!-- Generated by graphviz version 9.0.0 (20230911.1827)
 -->
<!-- Title: my_graph Pages: 1 -->
<svg width="1500pt" height="152pt"
 viewBox="0.00 0.00 1500.25 152.00" xmlns="http://www.w3.org/2000/svg" xmlns:xlink="http://www.w3.org/1999/xlink">
<g id="graph0" class="graph" transform="scale(1 1) rotate(0) translate(4 148)">
<title>my_graph</title>
<polygon fill="white" stroke="none" points="-4,4 -4,-148 1496.25,-148 1496.25,4 -4,4"/>
<!-- start -->
<g id="node1" class="node">
<title>start</title>
<ellipse fill="#9aff9a" stroke="black" cx="18" cy="-44" rx="18" ry="18"/>
</g>
<!-- node_0 -->
<g id="node12" class="node">
<title>node_0</title>
<polygon fill="orange" stroke="black" points="100,-62 73,-44 100,-26 127,-44 100,-62"/>
<text text-anchor="middle" x="100" y="-38.58" font-family="Times New Roman,serif" font-size="14.00">N</text>
</g>
<!-- start&#45;&gt;node_0 -->
<g id="edge13" class="edge">
<title>start&#45;&gt;node_0</title>
<path fill="none" stroke="black" d="M36.36,-44C43.56,-44 52.23,-44 60.78,-44"/>
<polygon fill="black" stroke="black" points="60.72,-47.5 70.72,-44 60.72,-40.5 60.72,-47.5"/>
</g>
<!-- end -->
<g id="node2" class="node">
<title>end</title>
<ellipse fill="orangered" stroke="black" cx="1470.25" cy="-38" rx="18" ry="18"/>
<ellipse fill="none" stroke="black" cx="1470.25" cy="-38" rx="22" ry="22"/>
</g>
<!-- node_3 -->
<g id="node3" class="node">
<title>node_3</title>
<path fill="lightblue" stroke="black" d="M707.5,-144C707.5,-144 461.25,-144 461.25,-144 455.25,-144 449.25,-138 449.25,-132 449.25,-132 449.25,-120 449.25,-120 449.25,-114 455.25,-108 461.25,-108 461.25,-108 707.5,-108 707.5,-108 713.5,-108 719.5,-114 719.5,-120 719.5,-120 719.5,-132 719.5,-132 719.5,-138 713.5,-144 707.5,-144"/>
<text text-anchor="middle" x="584.38" y="-120.58" font-family="Times New Roman,serif" font-size="14.00">SimpleTask1, impacts: c: 0 w: 0, dur: [0, 100]</text>
</g>
<!-- node_4 -->
<g id="node4" class="node">
<title>node_4</title>
<path fill="lightblue" stroke="black" d="M983.25,-144C983.25,-144 768.5,-144 768.5,-144 762.5,-144 756.5,-138 756.5,-132 756.5,-132 756.5,-120 756.5,-120 756.5,-114 762.5,-108 768.5,-108 768.5,-108 983.25,-108 983.25,-108 989.25,-108 995.25,-114 995.25,-120 995.25,-120 995.25,-132 995.25,-132 995.25,-138 989.25,-144 983.25,-144"/>
<text text-anchor="middle" x="875.88" y="-120.58" font-family="Times New Roman,serif" font-size="14.00">Task1, impacts: c: 20 w: 3, dur: [0, 100]</text>
</g>
<!-- node_3&#45;&gt;node_4 -->
<g id="edge1" class="edge">
<title>node_3&#45;&gt;node_4</title>
<path fill="none" stroke="black" d="M719.95,-126C728.28,-126 736.65,-126 744.95,-126"/>
<polygon fill="black" stroke="black" points="744.71,-129.5 754.71,-126 744.71,-122.5 744.71,-129.5"/>
</g>
<!-- node_8 -->
<g id="node8" class="node">
<title>node_8</title>
<polygon fill="yellowgreen" stroke="black" points="1293.25,-90 1266.25,-72 1293.25,-54 1320.25,-72 1293.25,-90"/>
<text text-anchor="middle" x="1293.25" y="-66.58" font-family="Times New Roman,serif" font-size="14.00">+</text>
</g>
<!-- node_4&#45;&gt;node_8 -->
<g id="edge4" class="edge">
<title>node_4&#45;&gt;node_8</title>
<path fill="none" stroke="black" d="M995.74,-119.3C1069.1,-113.66 1164.81,-103.58 1248.25,-86 1253.65,-84.86 1259.33,-83.32 1264.75,-81.68"/>
<polygon fill="black" stroke="black" points="1265.45,-85.13 1273.89,-78.73 1263.3,-78.47 1265.45,-85.13"/>
</g>
<!-- node_6 -->
<g id="node5" class="node">
<title>node_6</title>
<path fill="lightblue" stroke="black" d="M685,-90C685,-90 483.75,-90 483.75,-90 477.75,-90 471.75,-84 471.75,-78 471.75,-78 471.75,-66 471.75,-66 471.75,-60 477.75,-54 483.75,-54 483.75,-54 685,-54 685,-54 691,-54 697,-60 697,-66 697,-66 697,-78 697,-78 697,-84 691,-90 685,-90"/>
<text text-anchor="middle" x="584.38" y="-66.58" font-family="Times New Roman,serif" font-size="14.00">Task, impacts: c: 0 w: 0, dur: [0, 100]</text>
</g>
<!-- node_7 -->
<g id="node6" class="node">
<title>node_7</title>
<path fill="lightblue" stroke="black" d="M979.88,-90C979.88,-90 771.88,-90 771.88,-90 765.88,-90 759.88,-84 759.88,-78 759.88,-78 759.88,-66 759.88,-66 759.88,-60 765.88,-54 771.88,-54 771.88,-54 979.88,-54 979.88,-54 985.88,-54 991.88,-60 991.88,-66 991.88,-66 991.88,-78 991.88,-78 991.88,-84 985.88,-90 979.88,-90"/>
<text text-anchor="middle" x="875.88" y="-66.58" font-family="Times New Roman,serif" font-size="14.00">Task3, impacts: c: 0 w: 0, dur: [0, 100]</text>
</g>
<!-- node_6&#45;&gt;node_7 -->
<g id="edge2" class="edge">
<title>node_6&#45;&gt;node_7</title>
<path fill="none" stroke="black" d="M697.3,-72C714.01,-72 731.33,-72 748.32,-72"/>
<polygon fill="black" stroke="black" points="747.9,-75.5 757.9,-72 747.9,-68.5 747.9,-75.5"/>
</g>
<!-- node_7&#45;&gt;node_8 -->
<g id="edge6" class="edge">
<title>node_7&#45;&gt;node_8</title>
<path fill="none" stroke="black" d="M992.3,-72C1080.12,-72 1195.56,-72 1254.33,-72"/>
<polygon fill="black" stroke="black" points="1254.13,-75.5 1264.13,-72 1254.13,-68.5 1254.13,-75.5"/>
</g>
<!-- node_1 -->
<g id="node7" class="node">
<title>node_1</title>
<polygon fill="yellowgreen" stroke="black" points="296.25,-90 269.25,-72 296.25,-54 323.25,-72 296.25,-90"/>
<text text-anchor="middle" x="296.25" y="-66.58" font-family="Times New Roman,serif" font-size="14.00">+</text>
</g>
<!-- node_1&#45;&gt;node_3 -->
<g id="edge3" class="edge">
<title>node_1&#45;&gt;node_3</title>
<path fill="none" stroke="black" d="M317.83,-75.88C350.51,-82.05 416.53,-94.51 474.56,-105.46"/>
<polygon fill="black" stroke="black" points="473.71,-108.86 484.19,-107.28 475.01,-101.99 473.71,-108.86"/>
</g>
<!-- node_1&#45;&gt;node_6 -->
<g id="edge5" class="edge">
<title>node_1&#45;&gt;node_6</title>
<path fill="none" stroke="black" d="M323.91,-72C355.19,-72 409.23,-72 459.92,-72"/>
<polygon fill="black" stroke="black" points="459.84,-75.5 469.84,-72 459.84,-68.5 459.84,-75.5"/>
</g>
<!-- node_14 -->
<g id="node13" class="node">
<title>node_14</title>
<polygon fill="orange" stroke="black" points="1384.25,-56 1357.25,-38 1384.25,-20 1411.25,-38 1384.25,-56"/>
<text text-anchor="middle" x="1384.25" y="-32.58" font-family="Times New Roman,serif" font-size="14.00">N</text>
</g>
<!-- node_8&#45;&gt;node_14 -->
<g id="edge10" class="edge">
<title>node_8&#45;&gt;node_14</title>
<path fill="none" stroke="black" d="M1310.99,-65.6C1323.59,-60.79 1341.13,-54.09 1355.78,-48.5"/>
<polygon fill="black" stroke="black" points="1356.78,-51.86 1364.87,-45.02 1354.28,-45.32 1356.78,-51.86"/>
</g>
<!-- node_11 -->
<g id="node9" class="node">
<title>node_11</title>
<path fill="lightblue" stroke="black" d="M400.25,-36C400.25,-36 192.25,-36 192.25,-36 186.25,-36 180.25,-30 180.25,-24 180.25,-24 180.25,-12 180.25,-12 180.25,-6 186.25,0 192.25,0 192.25,0 400.25,0 400.25,0 406.25,0 412.25,-6 412.25,-12 412.25,-12 412.25,-24 412.25,-24 412.25,-30 406.25,-36 400.25,-36"/>
<text text-anchor="middle" x="296.25" y="-12.57" font-family="Times New Roman,serif" font-size="14.00">Task9, impacts: c: 0 w: 0, dur: [0, 100]</text>
</g>
<!-- node_12 -->
<g id="node10" class="node">
<title>node_12</title>
<path fill="lightblue" stroke="black" d="M691.75,-36C691.75,-36 477,-36 477,-36 471,-36 465,-30 465,-24 465,-24 465,-12 465,-12 465,-6 471,0 477,0 477,0 691.75,0 691.75,0 697.75,0 703.75,-6 703.75,-12 703.75,-12 703.75,-24 703.75,-24 703.75,-30 697.75,-36 691.75,-36"/>
<text text-anchor="middle" x="584.38" y="-12.57" font-family="Times New Roman,serif" font-size="14.00">Task15, impacts: c: 0 w: 0, dur: [0, 100]</text>
</g>
<!-- node_11&#45;&gt;node_12 -->
<g id="edge7" class="edge">
<title>node_11&#45;&gt;node_12</title>
<path fill="none" stroke="black" d="M412.39,-18C425.86,-18 439.67,-18 453.32,-18"/>
<polygon fill="black" stroke="black" points="453.22,-21.5 463.22,-18 453.22,-14.5 453.22,-21.5"/>
</g>
<!-- node_13 -->
<g id="node11" class="node">
<title>node_13</title>
<path fill="lightblue" stroke="black" d="M1236.25,-44C1236.25,-44 1025.25,-44 1025.25,-44 1019.25,-44 1013.25,-38 1013.25,-32 1013.25,-32 1013.25,-20 1013.25,-20 1013.25,-14 1019.25,-8 1025.25,-8 1025.25,-8 1236.25,-8 1236.25,-8 1242.25,-8 1248.25,-14 1248.25,-20 1248.25,-20 1248.25,-32 1248.25,-32 1248.25,-38 1242.25,-44 1236.25,-44"/>
<text text-anchor="middle" x="1130.75" y="-20.57" font-family="Times New Roman,serif" font-size="14.00">Taslk9, impacts: c: 0 w: 0, dur: [0, 100]</text>
</g>
<!-- node_12&#45;&gt;node_13 -->
<g id="edge8" class="edge">
<title>node_12&#45;&gt;node_13</title>
<path fill="none" stroke="black" d="M704.17,-19.75C792.07,-21.04 911.67,-22.8 1001.7,-24.12"/>
<polygon fill="black" stroke="black" points="1001.52,-27.62 1011.57,-24.26 1001.62,-20.62 1001.52,-27.62"/>
</g>
<!-- node_13&#45;&gt;node_14 -->
<g id="edge12" class="edge">
<title>node_13&#45;&gt;node_14</title>
<path fill="none" stroke="black" d="M1248.66,-31.58C1284.48,-33.29 1321.26,-35.04 1347.3,-36.28"/>
<polygon fill="black" stroke="black" points="1346.8,-39.76 1356.96,-36.75 1347.13,-32.77 1346.8,-39.76"/>
</g>
<!-- node_0&#45;&gt;node_1 -->
<g id="edge9" class="edge">
<title>node_0&#45;&gt;node_1</title>
<path fill="none" stroke="black" d="M122.91,-47.16C156.88,-52.05 222.49,-61.51 262.23,-67.24"/>
<polygon fill="black" stroke="black" points="261.53,-70.68 271.93,-68.64 262.53,-63.75 261.53,-70.68"/>
<text text-anchor="middle" x="153.62" y="-55.45" font-family="Times New Roman,serif" font-size="14.00">0.5</text>
</g>
<!-- node_0&#45;&gt;node_11 -->
<g id="edge11" class="edge">
<title>node_0&#45;&gt;node_11</title>
<path fill="none" stroke="black" d="M117.91,-37.75C126,-35.01 135.89,-32.02 145,-30.25 152.68,-28.76 160.62,-27.44 168.65,-26.29"/>
<polygon fill="black" stroke="black" points="169.1,-29.76 178.55,-24.97 168.17,-22.82 169.1,-29.76"/>
<text text-anchor="middle" x="153.62" y="-33.45" font-family="Times New Roman,serif" font-size="14.00">0.5</text>
</g>
<!-- node_14&#45;&gt;end -->
<g id="edge14" class="edge">
<title>node_14&#45;&gt;end</title>
<path fill="none" stroke="black" d="M1411.83,-38C1419.64,-38 1428.29,-38 1436.44,-38"/>
<polygon fill="black" stroke="black" points="1436.38,-41.5 1446.38,-38 1436.38,-34.5 1436.38,-41.5"/>
</g>
</g>
</svg>
